# 3ds Max Wavefront OBJ Exporter v0.97b - (c)2007 guruware
# File Created: 20.01.2019 22:44:51

#
# object Box033
#

v  11.8111 -9.0552 3.9370
v  11.8111 -11.0237 3.9370
v  -11.8110 -11.0237 3.9370
v  -11.8110 -9.0552 3.9370
v  11.8111 11.8110 32.2835
v  -11.8110 11.8110 32.2835
v  -11.8110 -11.0237 32.2835
v  11.8111 -11.0237 32.2835
v  11.8111 11.8110 3.9370
v  -11.8110 11.8110 3.9370
v  11.8111 11.8110 0.0000
v  11.8111 -9.0552 0.0000
v  -11.8110 -9.0552 0.0000
v  -11.8110 11.8110 0.0000
v  11.6142 -11.8111 32.0866
v  -11.6142 -11.8111 32.0866
v  -11.6142 -11.8111 4.1339
v  11.6142 -11.8111 4.1339
v  -11.6142 -11.0237 4.1339
v  11.6142 -11.0237 4.1339
v  11.6142 -11.0237 32.0866
v  -11.6142 -11.0237 32.0866
v  -5.3150 -12.2048 4.1339
v  -5.3150 -11.8111 4.1339
v  -5.3150 -11.8111 5.3307
v  -5.3150 -12.2048 5.3307
v  -10.2756 -11.8111 5.3307
v  -10.2756 -12.2048 5.3307
v  -10.2756 -11.8111 14.2283
v  -10.2756 -12.2048 14.2283
v  -11.6142 -11.8111 14.2283
v  -11.6142 -12.2048 14.2283
v  -11.6142 -12.2048 4.1339
# 33 vertices

vn 0.0000 0.0000 -1.0000
vn 0.0000 0.0000 1.0000
vn 1.0000 0.0000 0.0000
vn 0.0000 1.0000 0.0000
vn -1.0000 0.0000 0.0000
vn 0.0000 -1.0000 0.0000
vn 0.0000 -1.0000 -0.0000
# 7 vertex normals

vt 0.0000 1.0000 0.0000
vt 0.0000 0.0000 0.0000
vt 1.0000 0.0000 0.0000
vt 1.0000 1.0000 0.0000
vt 3.1496 0.0000 0.3937
vt 3.1496 0.0000 0.0000
vt 3.1496 1.1969 0.0000
vt 3.1496 1.1969 0.3937
vt -1.8110 1.1969 0.0000
vt -1.8110 1.1969 0.3937
vt -1.8110 10.0945 0.0000
vt -1.8110 10.0945 0.3937
vt -3.1496 10.0945 0.0000
vt -3.1496 10.0945 0.3937
vt -3.1496 0.0000 0.0000
vt -3.1496 0.0000 0.3937
# 16 texture coords

g Box033
s 2
f 1/1/1 2/2/1 3/3/1 4/4/1 
s 4
f 5/4/2 6/1/2 7/2/2 8/3/2 
s 16
f 5/4/3 8/1/3 2/2/3 9/3/3 
s 32
f 6/4/4 5/1/4 9/2/4 10/3/4 
s 64
f 7/4/5 6/1/5 10/2/5 3/3/5 
s 2
f 9/1/2 10/4/2 4/3/2 1/2/2 
s 4
f 11/4/1 12/3/1 13/2/1 14/1/1 
s 8
f 12/4/6 1/3/6 4/2/6 13/1/6 
s 16
f 11/4/3 9/3/3 1/2/3 12/1/3 
s 32
f 14/4/4 10/3/4 9/2/4 11/1/4 
s 64
f 13/4/5 4/3/5 10/2/5 14/1/5 
s off
f 3/3/6 2/2/6 8/3/6 7/2/6 
s 8
f 15/4/6 16/1/6 17/2/6 18/3/6 
s off
f 18/3/1 17/2/1 19/2/1 20/3/1 
f 15/4/3 18/3/3 20/3/3 21/4/3 
f 16/1/2 15/4/2 21/4/2 22/1/2 
f 17/2/5 16/1/5 22/1/5 19/2/5 
s 2
f 23/5/3 24/6/3 25/7/3 26/8/3 
s 4
f 26/8/2 25/7/2 27/9/2 28/10/2 
s 8
f 28/10/3 27/9/3 29/11/3 30/12/3 
s 16
f 30/12/2 29/11/2 31/13/2 32/14/2 
s 2
f 32/14/5 31/13/5 17/15/5 33/16/5 
s 5
f 33/16/1 17/15/1 24/6/1 23/5/1 
s 1024
f 30/12/7 32/14/7 33/16/7 28/10/7 
f 28/10/7 33/16/7 23/5/6 26/8/6 
f 17/15/4 31/13/4 29/11/4 27/9/4 
f 24/6/4 17/15/4 27/9/4 25/7/4 
# 27 polygons

