# 3ds Max Wavefront OBJ Exporter v0.97b - (c)2007 guruware
# File Created: 20.01.2019 22:49:39

#
# object Box032
#

v  11.8111 -9.0552 3.9370
v  11.8111 -11.0237 3.9370
v  -11.8110 -11.0237 3.9370
v  -11.8110 -9.0552 3.9370
v  11.8111 11.8110 32.2835
v  -11.8110 11.8110 32.2835
v  -11.8110 -11.0237 32.2835
v  11.8111 -11.0237 32.2835
v  11.8111 11.8110 3.9370
v  -11.8110 11.8110 3.9370
v  11.8111 11.8110 0.0000
v  11.8111 -9.0552 0.0000
v  -11.8110 -9.0552 0.0000
v  -11.8110 11.8110 0.0000
v  11.6142 -11.8111 25.0000
v  -11.6142 -11.8111 25.0000
v  -11.6142 -11.8111 18.3071
v  11.6142 -11.8111 18.3071
v  -11.6142 -11.0237 18.3071
v  11.6142 -11.0237 18.3071
v  11.6142 -11.0237 25.0000
v  -11.6142 -11.0237 25.0000
v  11.6142 -11.8111 17.9134
v  -11.6142 -11.8111 17.9134
v  -11.6142 -11.8111 11.2205
v  11.6142 -11.8111 11.2205
v  -11.6142 -11.0237 11.2205
v  11.6142 -11.0237 11.2205
v  11.6142 -11.0237 17.9134
v  -11.6142 -11.0237 17.9134
v  11.6142 -11.8111 10.8268
v  -11.6142 -11.8111 10.8268
v  -11.6142 -11.8111 4.1339
v  11.6142 -11.8111 4.1339
v  -11.6142 -11.0237 4.1339
v  11.6142 -11.0237 4.1339
v  11.6142 -11.0237 10.8268
v  -11.6142 -11.0237 10.8268
v  11.6142 -11.8111 32.0866
v  -11.6142 -11.8111 32.0866
v  -11.6142 -11.8111 25.3937
v  11.6142 -11.8111 25.3937
v  -11.6142 -11.0237 25.3937
v  11.6142 -11.0237 25.3937
v  11.6142 -11.0237 32.0866
v  -11.6142 -11.0237 32.0866
# 46 vertices

vn 0.0000 0.0000 -1.0000
vn 0.0000 0.0000 1.0000
vn 1.0000 0.0000 0.0000
vn 0.0000 1.0000 0.0000
vn -1.0000 0.0000 0.0000
vn 0.0000 -1.0000 0.0000
# 6 vertex normals

vt 0.0000 1.0000 0.0000
vt 0.0000 0.0000 0.0000
vt 1.0000 0.0000 0.0000
vt 1.0000 1.0000 0.0000
# 4 texture coords

g Box032
s 2
f 1/1/1 2/2/1 3/3/1 4/4/1 
s 4
f 5/4/2 6/1/2 7/2/2 8/3/2 
s 16
f 5/4/3 8/1/3 2/2/3 9/3/3 
s 32
f 6/4/4 5/1/4 9/2/4 10/3/4 
s 64
f 7/4/5 6/1/5 10/2/5 3/3/5 
s 2
f 9/1/2 10/4/2 4/3/2 1/2/2 
s 4
f 11/4/1 12/3/1 13/2/1 14/1/1 
s 8
f 12/4/6 1/3/6 4/2/6 13/1/6 
s 16
f 11/4/3 9/3/3 1/2/3 12/1/3 
s 32
f 14/4/4 10/3/4 9/2/4 11/1/4 
s 64
f 13/4/5 4/3/5 10/2/5 14/1/5 
s off
f 3/3/6 2/2/6 8/3/6 7/2/6 
s 8
f 15/4/6 16/1/6 17/2/6 18/3/6 
s off
f 18/3/1 17/2/1 19/2/1 20/3/1 
f 15/4/3 18/3/3 20/3/3 21/4/3 
f 16/1/2 15/4/2 21/4/2 22/1/2 
f 17/2/5 16/1/5 22/1/5 19/2/5 
s 8
f 23/4/6 24/1/6 25/2/6 26/3/6 
s off
f 26/3/1 25/2/1 27/2/1 28/3/1 
f 23/4/3 26/3/3 28/3/3 29/4/3 
f 24/1/2 23/4/2 29/4/2 30/1/2 
f 25/2/5 24/1/5 30/1/5 27/2/5 
s 8
f 31/4/6 32/1/6 33/2/6 34/3/6 
s off
f 34/3/1 33/2/1 35/2/1 36/3/1 
f 31/4/3 34/3/3 36/3/3 37/4/3 
f 32/1/2 31/4/2 37/4/2 38/1/2 
f 33/2/5 32/1/5 38/1/5 35/2/5 
s 8
f 39/4/6 40/1/6 41/2/6 42/3/6 
s off
f 42/3/1 41/2/1 43/2/1 44/3/1 
f 39/4/3 42/3/3 44/3/3 45/4/3 
f 40/1/2 39/4/2 45/4/2 46/1/2 
f 41/2/5 40/1/5 46/1/5 43/2/5 
# 32 polygons

