# 3ds Max Wavefront OBJ Exporter v0.97b - (c)2007 guruware
# File Created: 20.01.2019 22:45:40

#
# object Box035
#

v  11.8111 -9.0552 3.9370
v  11.8111 -11.0237 3.9370
v  -11.8110 -11.0237 3.9370
v  -11.8110 -9.0552 3.9370
v  11.8111 11.8110 32.2835
v  -11.8110 11.8110 32.2835
v  -11.8110 -11.0237 32.2835
v  11.8111 -11.0237 32.2835
v  11.8111 11.8110 3.9370
v  -11.8110 11.8110 3.9370
v  11.8111 11.8110 0.0000
v  11.8111 -9.0552 0.0000
v  -11.8110 -9.0552 0.0000
v  -11.8110 11.8110 0.0000
v  11.6142 -11.8111 32.0866
v  -11.6142 -11.8111 32.0866
v  -11.6142 -11.8111 4.1339
v  11.6142 -11.8111 4.1339
v  -11.6142 -11.0237 4.1339
v  11.6142 -11.0237 4.1339
v  11.6142 -11.0237 32.0866
v  -11.6142 -11.0237 32.0866
v  -3.6299 -12.2048 4.1339
v  -3.6299 -11.8111 4.1339
v  -3.6299 -11.8111 5.3307
v  -3.6299 -12.2048 5.3307
v  -10.0788 -11.8111 5.3307
v  -10.0788 -12.2048 5.3307
v  -9.4789 -11.8111 6.0418
v  -9.4789 -12.2048 6.0418
v  -3.8032 -11.8111 13.0315
v  -3.8032 -12.2048 13.0315
v  -3.8032 -11.8111 14.2283
v  -3.8032 -12.2048 14.2283
v  -11.0315 -11.8111 14.2283
v  -11.0315 -12.2048 14.2283
v  -11.0315 -11.8111 13.0315
v  -11.0315 -12.2048 13.0315
v  -5.3984 -11.8111 13.0315
v  -5.3984 -12.2048 13.0315
v  -6.4373 -11.8111 11.8270
v  -6.4373 -12.2048 11.8270
v  -11.6142 -11.8111 5.3789
v  -11.6142 -12.2048 5.3789
v  -11.6142 -12.2048 4.1339
# 45 vertices

vn 0.0000 0.0000 -1.0000
vn 0.0000 0.0000 1.0000
vn 1.0000 0.0000 0.0000
vn 0.0000 1.0000 0.0000
vn -1.0000 0.0000 0.0000
vn 0.0000 -1.0000 0.0000
vn 0.7643 0.0000 -0.6448
vn 0.7763 0.0000 -0.6304
vn -0.7572 0.0000 0.6531
vn -0.7798 0.0000 0.6261
vn 0.0000 -1.0000 -0.0000
# 11 vertex normals

vt 0.0000 1.0000 0.0000
vt 0.0000 0.0000 0.0000
vt 1.0000 0.0000 0.0000
vt 1.0000 1.0000 0.0000
vt 3.9921 0.0000 0.3937
vt 3.9921 0.0000 0.0000
vt 3.9921 1.1969 0.0000
vt 3.9921 1.1969 0.3937
vt -2.4567 1.1969 0.0000
vt -2.4567 1.1969 0.3937
vt -1.8568 1.9080 0.0000
vt -1.8568 1.9080 0.3937
vt 3.8189 8.8976 0.0000
vt 3.8189 8.8976 0.3937
vt 3.8189 10.0945 0.0000
vt 3.8189 10.0945 0.3937
vt -3.4094 10.0945 0.0000
vt -3.4094 10.0945 0.3937
vt -3.4094 8.8976 0.0000
vt -3.4094 8.8976 0.3937
vt 2.2237 8.8976 0.0000
vt 2.2237 8.8976 0.3937
vt 1.1848 7.6932 0.0000
vt 1.1848 7.6932 0.3937
vt -3.9921 1.2451 0.0000
vt -3.9921 1.2451 0.3937
vt -3.9921 0.0000 0.0000
vt -3.9921 0.0000 0.3937
# 28 texture coords

g Box035
s 2
f 1/1/1 2/2/1 3/3/1 4/4/1 
s 4
f 5/4/2 6/1/2 7/2/2 8/3/2 
s 16
f 5/4/3 8/1/3 2/2/3 9/3/3 
s 32
f 6/4/4 5/1/4 9/2/4 10/3/4 
s 64
f 7/4/5 6/1/5 10/2/5 3/3/5 
s 2
f 9/1/2 10/4/2 4/3/2 1/2/2 
s 4
f 11/4/1 12/3/1 13/2/1 14/1/1 
s 8
f 12/4/6 1/3/6 4/2/6 13/1/6 
s 16
f 11/4/3 9/3/3 1/2/3 12/1/3 
s 32
f 14/4/4 10/3/4 9/2/4 11/1/4 
s 64
f 13/4/5 4/3/5 10/2/5 14/1/5 
s off
f 3/3/6 2/2/6 8/3/6 7/2/6 
s 8
f 15/4/6 16/1/6 17/2/6 18/3/6 
s off
f 18/3/1 17/2/1 19/2/1 20/3/1 
f 15/4/3 18/3/3 20/3/3 21/4/3 
f 16/1/2 15/4/2 21/4/2 22/1/2 
f 17/2/5 16/1/5 22/1/5 19/2/5 
s 2
f 23/5/3 24/6/3 25/7/3 26/8/3 
s 4
f 26/8/2 25/7/2 27/9/2 28/10/2 
s 8
f 28/10/7 27/9/7 29/11/7 30/12/7 
s 16
f 30/12/8 29/11/8 31/13/8 32/14/8 
s 2
f 32/14/3 31/13/3 33/15/3 34/16/3 
s 4
f 34/16/2 33/15/2 35/17/2 36/18/2 
s 8
f 36/18/5 35/17/5 37/19/5 38/20/5 
s 16
f 38/20/1 37/19/1 39/21/1 40/22/1 
s 2
f 40/22/9 39/21/9 41/23/9 42/24/9 
s 4
f 42/24/10 41/23/10 43/25/10 44/26/10 
s 8
f 44/26/5 43/25/5 17/27/5 45/28/5 
s 17
f 45/28/1 17/27/1 24/6/1 23/5/1 
s 1024
f 44/26/11 45/28/6 23/5/6 28/10/6 
f 44/26/11 28/10/6 30/12/11 42/24/11 
f 40/22/11 42/24/11 30/12/11 32/14/11 
f 40/22/11 32/14/11 34/16/6 36/18/6 
f 36/18/6 38/20/6 40/22/11 
f 26/8/6 28/10/6 23/5/6 
f 24/6/4 17/27/4 43/25/4 27/9/4 
f 25/7/4 24/6/4 27/9/4 
f 29/11/4 27/9/4 43/25/4 41/23/4 
f 29/11/4 41/23/4 39/21/4 31/13/4 
f 33/15/4 31/13/4 39/21/4 35/17/4 
f 35/17/4 39/21/4 37/19/4 
# 37 polygons - 4 triangles

