# 3ds Max Wavefront OBJ Exporter v0.97b - (c)2007 guruware
# File Created: 20.10.2019 22:51:53

mtllib corner_szafka_gora.mtl

#
# object Line001
#

v  -8.0000 -8.4300 140.0000
v  -8.0000 -8.4300 179.9999
v  -40.0002 -8.4300 179.9999
v  -40.0002 -8.4300 140.0000
v  -8.0000 -40.4302 140.0000
v  -8.0000 -40.4302 179.9999
v  29.9999 -40.4302 140.0000
v  29.9999 -40.4302 179.9999
v  29.9999 29.5699 140.0000
v  29.9999 29.5699 179.9999
v  -40.0002 29.5699 140.0000
v  -40.0002 29.5699 179.9999
v  -8.0000 -8.3370 140.5001
v  -8.0000 -8.3370 179.5000
v  -8.0000 -39.8371 179.5000
v  -8.0000 -39.8371 140.5001
v  -39.5003 -8.3370 140.5001
v  -39.5003 -8.3370 179.5000
v  -39.5003 -10.3370 140.5001
v  -39.5003 -10.3370 179.5000
v  -10.0000 -10.3370 140.5001
v  -10.0000 -10.3370 179.5000
v  -10.0000 -39.8371 140.5001
v  -10.0000 -39.8371 179.5000
# 24 vertices

vn 0.0000 -1.0000 0.0000
vn -1.0000 0.0000 0.0000
vn 1.0000 0.0000 0.0000
vn 0.0000 1.0000 0.0000
vn 0.0000 0.0000 -1.0000
vn 0.0000 0.0000 1.0000
# 6 vertex normals

vt 0.4572 0.0005 0.4572
vt 0.4572 0.9995 0.4572
vt 0.0005 0.9995 0.4572
vt 0.0005 0.0005 0.4572
vt 0.9995 0.0005 0.4572
vt 0.9995 0.9995 0.4572
vt 0.5428 0.9995 0.4572
vt 0.5428 0.0005 0.4572
vt 0.9995 0.0005 0.0005
vt 0.9995 0.9995 0.0005
vt 0.4572 0.9995 0.0005
vt 0.4572 0.0005 0.0005
vt 0.9995 0.0005 0.9995
vt 0.9995 0.9995 0.9995
vt 0.0005 0.9995 0.9995
vt 0.0005 0.0005 0.9995
vt 0.5428 0.0005 0.0005
vt 0.5428 0.9995 0.0005
vt 0.0005 0.9995 0.0005
vt 0.0005 0.0005 0.0005
vt 0.5428 0.4572 0.0005
vt 0.9995 0.4572 0.0005
vt 0.4572 0.4572 0.9995
vt 0.4572 0.0005 0.9995
vt 0.0005 0.4572 0.9995
vt 0.4585 0.0130 0.4572
vt 0.4585 0.9870 0.4572
vt 0.0090 0.9870 0.4572
vt 0.0090 0.0130 0.4572
vt 0.9924 0.0130 0.4585
vt 0.9924 0.9870 0.4585
vt 0.5428 0.9870 0.4585
vt 0.5428 0.0130 0.4585
vt 0.5700 0.0130 0.0076
vt 0.5700 0.9870 0.0076
vt 0.5415 0.9870 0.0076
vt 0.5415 0.0130 0.0076
vt 0.4286 0.0130 0.4300
vt 0.4286 0.9870 0.4300
vt 0.0076 0.9870 0.4300
vt 0.0076 0.0130 0.4300
vt 0.9910 0.0130 0.4286
vt 0.9910 0.9870 0.4286
vt 0.5700 0.9870 0.4286
vt 0.5700 0.0130 0.4286
vt 0.4572 0.0130 0.0090
vt 0.4572 0.9870 0.0090
vt 0.4286 0.9870 0.0090
vt 0.4286 0.0130 0.0090
vt 0.5714 0.4300 0.0130
vt 0.5428 0.4585 0.0130
vt 0.5428 0.0090 0.0130
vt 0.5714 0.0090 0.0130
vt 0.9924 0.4300 0.0130
vt 0.9924 0.4585 0.0130
vt 0.4286 0.4300 0.9870
vt 0.4286 0.0090 0.9870
vt 0.4572 0.0090 0.9870
vt 0.4572 0.4585 0.9870
vt 0.0076 0.4585 0.9870
vt 0.0076 0.4300 0.9870
# 61 texture coords

g Line001
usemtl default
s 1
f 1/1/1 2/2/1 3/3/1 4/4/1 
s 4
f 5/5/2 6/6/2 2/7/2 1/8/2 
s 2
f 7/9/1 8/10/1 6/11/1 5/12/1 
s 4
f 9/13/3 10/14/3 8/15/3 7/16/3 
s 2
f 11/13/4 12/14/4 10/15/4 9/16/4 
s 4
f 4/17/2 3/18/2 12/19/2 11/20/2 
s 16
f 1/21/5 11/10/5 9/19/5 7/20/5 
f 1/21/5 7/20/5 5/17/5 
f 1/21/5 4/22/5 11/10/5 
f 10/14/6 12/15/6 2/23/6 8/13/6 
f 2/23/6 6/24/6 8/13/6 
f 2/23/6 12/15/6 3/25/6 
s 1
f 13/26/3 14/27/3 15/28/3 16/29/3 
s 4
f 17/30/4 18/31/4 14/32/4 13/33/4 
s 2
f 19/34/2 20/35/2 18/36/2 17/37/2 
s 4
f 21/38/1 22/39/1 20/40/1 19/41/1 
s 2
f 23/42/2 24/43/2 22/44/2 21/45/2 
s 4
f 16/46/1 15/47/1 24/48/1 23/49/1 
s 16
f 21/50/5 13/51/5 16/52/5 23/53/5 
f 21/50/5 19/54/5 17/55/5 13/51/5 
f 22/56/6 24/57/6 15/58/6 14/59/6 
f 22/56/6 14/59/6 18/60/6 20/61/6 
# 18 polygons - 4 triangles

