# 3ds Max Wavefront OBJ Exporter v0.97b - (c)2007 guruware
# File Created: 23.09.2019 20:34:45

#
# object Line001
#

v  -15.7481 -3.3189 55.1181
v  -3.1496 -3.3189 55.1181
v  -3.1496 -3.3189 70.8661
v  -15.7481 -3.3189 70.8661
v  -3.1496 -15.9174 55.1181
v  -3.1496 -15.9174 70.8661
v  11.8110 -15.9174 55.1181
v  11.8110 -15.9174 70.8661
v  11.8110 11.6417 55.1181
v  11.8110 11.6417 70.8661
v  -15.7481 11.6417 55.1181
v  -15.7481 11.6417 70.8661
v  -3.1496 -15.6839 55.3150
v  -3.1496 -3.2823 55.3150
v  -3.1496 -3.2823 70.6693
v  -3.1496 -15.6839 70.6693
v  -15.5513 -3.2823 55.3150
v  -15.5513 -3.2823 70.6693
v  -15.5513 -4.0697 55.3150
v  -15.5513 -4.0697 70.6693
v  -3.9370 -4.0697 55.3150
v  -3.9370 -4.0697 70.6693
v  -3.9370 -15.6839 55.3150
v  -3.9370 -15.6839 70.6693
# 24 vertices

vn -0.0000 -1.0000 0.0000
vn -1.0000 0.0000 0.0000
vn 0.0000 -1.0000 0.0000
vn 1.0000 0.0000 0.0000
vn -0.0000 1.0000 0.0000
vn 0.0000 0.0000 -1.0000
vn 0.0000 0.0000 1.0000
vn 0.0000 1.0000 0.0000
vn -0.0000 -0.0000 -1.0000
# 9 vertex normals

g Line001
s 1
f 1//1 2//1 3//1 4//1 
s 4
f 2//2 5//2 6//2 3//2 
s 2
f 5//3 7//3 8//3 6//3 
s 4
f 7//4 9//4 10//4 8//4 
s 2
f 9//5 11//5 12//5 10//5 
s 4
f 11//2 1//2 4//2 12//2 
s 16
f 7//6 2//6 11//6 9//6 
f 2//6 7//6 5//6 
f 2//6 1//6 11//6 
f 8//7 10//7 12//7 3//7 
f 3//7 6//7 8//7 
f 3//7 12//7 4//7 
s 1
f 13//4 14//4 15//4 16//4 
s 4
f 14//8 17//8 18//8 15//8 
s 2
f 17//2 19//2 20//2 18//2 
s 4
f 19//3 21//3 22//3 20//3 
s 2
f 21//2 23//2 24//2 22//2 
s 4
f 23//3 13//3 16//3 24//3 
s 16
f 21//9 14//9 13//9 23//6 
f 21//9 19//6 17//9 14//9 
f 22//7 24//7 16//7 15//7 
f 22//7 15//7 18//7 20//7 
# 18 polygons - 4 triangles

