# 3ds Max Wavefront OBJ Exporter v0.97b - (c)2007 guruware
# File Created: 29.09.2019 23:04:41

#
# object Line002
#

v  -15.7480 -9.0551 -0.0000
v  -9.0551 -9.0551 -0.0000
v  -9.0551 -9.0551 3.9370
v  -15.7480 -9.0551 3.9370
v  -9.0551 -15.7480 -0.0000
v  -9.0551 -15.7480 3.9370
v  11.8111 -15.7480 0.0000
v  11.8111 -15.7480 3.9370
v  11.8111 11.8111 0.0000
v  11.8111 11.8111 3.9370
v  -15.7480 11.8111 0.0000
v  -15.7480 11.8111 3.9370
v  -11.0236 -11.0236 3.9370
v  -11.0236 -15.7480 3.9370
v  -11.0236 -15.7480 32.2835
v  -11.0236 -11.0236 32.2835
v  11.8111 -15.7480 32.2835
v  11.8111 11.8111 32.2835
v  -15.7480 11.8111 32.2835
v  -15.7480 -11.0236 3.9370
v  -15.7480 -11.0236 32.2835
v  -11.8106 -11.8107 4.1339
v  -11.8106 -15.5510 4.1339
v  -11.8106 -15.5510 32.0866
v  -11.8106 -11.8107 32.0866
v  -11.0232 -15.5510 4.1339
v  -11.0232 -15.5510 32.0866
v  -11.0236 -11.0236 4.1339
v  -11.0236 -11.0236 32.0866
v  -15.5508 -11.0233 4.1339
v  -15.5508 -11.0233 32.0866
v  -15.5508 -11.8107 4.1339
v  -15.5508 -11.8107 32.0866
# 33 vertices

vn 0.0000 -1.0000 -0.0000
vn -0.0000 -1.0000 -0.0000
vn -1.0000 -0.0000 -0.0000
vn 1.0000 0.0000 -0.0000
vn 0.0000 1.0000 0.0000
vn -1.0000 0.0000 0.0000
vn 0.0000 0.0000 -1.0000
vn -0.0000 0.0000 -1.0000
vn -0.0000 -0.0000 1.0000
vn 0.0000 -0.0000 1.0000
vn 1.0000 0.0001 0.0000
vn 0.0001 1.0000 0.0000
vn -0.0000 -0.0000 -1.0000
vn 0.0000 0.0000 1.0000
# 14 vertex normals

vt 0.0005 0.0176 0.2431
vt 0.2431 0.0176 0.2431
vt 0.2431 0.1353 0.2431
vt 0.0005 0.1353 0.2431
vt 0.7569 0.0176 0.2431
vt 0.9995 0.0176 0.2431
vt 0.9995 0.1353 0.2431
vt 0.7569 0.1353 0.2431
vt 0.2431 0.0176 0.0005
vt 0.9995 0.0176 0.0005
vt 0.9995 0.1353 0.0005
vt 0.2431 0.1353 0.0005
vt 0.0005 0.0176 0.9995
vt 0.9995 0.0176 0.9995
vt 0.9995 0.1353 0.9995
vt 0.0005 0.1353 0.9995
vt 0.0005 0.0176 0.0005
vt 0.7569 0.0176 0.0005
vt 0.7569 0.1353 0.0005
vt 0.0005 0.1353 0.0005
vt 0.0005 0.9995 0.0176
vt 0.7569 0.2431 0.0176
vt 0.9995 0.2431 0.0176
vt 0.9995 0.9995 0.0176
vt 0.0005 0.0005 0.0176
vt 0.7569 0.0005 0.0176
vt 0.9995 0.9995 0.1353
vt 0.0005 0.9995 0.1353
vt 0.0005 0.2431 0.1353
vt 0.2431 0.2431 0.1353
vt 0.9995 0.0005 0.1353
vt 0.2431 0.0005 0.1353
vt 0.8282 0.1353 0.1718
vt 0.9995 0.1353 0.1718
vt 0.9995 0.9824 0.1718
vt 0.8282 0.9824 0.1718
vt 0.1718 0.1353 0.0005
vt 0.9995 0.9824 0.0005
vt 0.1718 0.9824 0.0005
vt 0.9995 0.9824 0.9995
vt 0.0005 0.9824 0.9995
vt 0.8282 0.1353 0.0005
vt 0.8282 0.9824 0.0005
vt 0.0005 0.9824 0.0005
vt 0.0005 0.1353 0.1718
vt 0.1718 0.1353 0.1718
vt 0.1718 0.9824 0.1718
vt 0.0005 0.9824 0.1718
vt 0.8282 0.1718 0.1353
vt 0.9995 0.1718 0.1353
vt 0.0005 0.0005 0.1353
vt 0.8282 0.0005 0.1353
vt 0.0005 0.9995 0.9824
vt 0.0005 0.1718 0.9824
vt 0.1718 0.1718 0.9824
vt 0.9995 0.9995 0.9824
vt 0.9995 0.0005 0.9824
vt 0.1718 0.0005 0.9824
vt 0.8568 0.1412 0.1432
vt 0.9924 0.1412 0.1432
vt 0.9924 0.9765 0.1432
vt 0.8568 0.9765 0.1432
vt 0.1432 0.1412 0.0076
vt 0.1718 0.1412 0.0076
vt 0.1718 0.9765 0.0076
vt 0.1432 0.9765 0.0076
vt 0.0076 0.1412 0.1718
vt 0.1718 0.1412 0.1718
vt 0.1718 0.9765 0.1718
vt 0.0076 0.9765 0.1718
vt 0.8282 0.1412 0.1718
vt 0.9924 0.1412 0.1718
vt 0.9924 0.9765 0.1718
vt 0.8282 0.9765 0.1718
vt 0.8282 0.1412 0.0076
vt 0.8568 0.1412 0.0076
vt 0.8568 0.9765 0.0076
vt 0.8282 0.9765 0.0076
vt 0.0076 0.1412 0.1432
vt 0.1432 0.1412 0.1432
vt 0.1432 0.9765 0.1432
vt 0.0076 0.9765 0.1432
vt 0.8568 0.0076 0.1412
vt 0.8568 0.1432 0.1412
vt 0.8282 0.1718 0.1412
vt 0.8282 0.0076 0.1412
vt 0.9924 0.1432 0.1412
vt 0.9924 0.1718 0.1412
vt 0.1432 0.0076 0.9765
vt 0.1718 0.0076 0.9765
vt 0.1718 0.1718 0.9765
vt 0.1432 0.1432 0.9765
vt 0.0076 0.1718 0.9765
vt 0.0076 0.1432 0.9765
# 94 texture coords

g Line002
s 1
f 1/1/1 2/2/1 3/3/1 4/4/2 
s 4
f 2/5/3 5/6/3 6/7/3 3/8/3 
s 2
f 5/9/1 7/10/1 8/11/1 6/12/1 
s 4
f 7/13/4 9/14/4 10/15/4 8/16/4 
s 2
f 9/13/5 11/14/5 12/15/5 10/16/5 
s 4
f 11/17/6 1/18/6 4/19/6 12/20/6 
s 16
f 9/21/7 2/22/7 1/23/7 11/24/8 
f 7/25/7 5/26/7 2/22/7 9/21/7 
f 10/27/9 12/28/10 4/29/10 3/30/9 
f 8/31/9 10/27/9 3/30/9 6/32/9 
s 1
f 13/33/6 14/34/6 15/35/6 16/36/6 
s 4
f 14/37/1 8/11/1 17/38/1 15/39/1 
s 2
f 8/16/4 10/15/4 18/40/4 17/41/4 
s 4
f 10/16/5 12/15/5 19/40/5 18/41/5 
s 2
f 12/20/6 20/42/6 21/43/6 19/44/6 
s 4
f 20/45/1 13/46/1 16/47/1 21/48/1 
s 16
f 12/27/8 10/28/8 13/49/8 20/50/8 
f 8/51/8 14/52/8 13/49/8 10/28/8 
f 19/53/10 21/54/10 16/55/10 18/56/10 
f 17/57/10 18/56/10 16/55/10 15/58/10 
s 1
f 22/59/3 23/60/3 24/61/3 25/62/3 
s 4
f 23/63/2 26/64/2 27/65/2 24/66/2 
s 2
f 26/67/11 28/68/11 29/69/11 27/70/11 
s 4
f 28/71/12 30/72/12 31/73/12 29/74/12 
s 2
f 30/75/6 32/76/6 33/77/6 31/78/6 
s 4
f 32/79/1 22/80/1 25/81/1 33/82/1 
s 16
f 23/83/13 22/84/13 28/85/13 26/86/13 
f 22/84/13 32/87/8 30/88/13 28/85/13 
f 24/89/14 27/90/14 29/91/14 25/92/14 
f 25/92/14 29/91/14 31/93/14 33/94/10 
# 30 polygons

