# 3ds Max Wavefront OBJ Exporter v0.97b - (c)2007 guruware
# File Created: 29.09.2019 23:04:52

#
# object Line004
#

v  -15.7479 -11.8109 32.2835
v  -11.8109 -11.8109 32.2835
v  -11.8109 -11.8109 33.4646
v  -15.7479 -11.8109 33.4646
v  -11.8109 -15.7479 32.2835
v  -11.8109 -15.7479 33.4646
v  11.8112 -15.7479 32.2835
v  11.8112 -15.7479 33.4646
v  11.8112 11.8112 32.2835
v  11.8112 11.8112 33.4646
v  -15.7479 11.8112 32.2835
v  -15.7479 11.8112 33.4646
# 12 vertices

vn 0.0000 -1.0000 0.0000
vn -1.0000 0.0000 0.0000
vn 1.0000 0.0000 0.0000
vn 0.0000 1.0000 0.0000
vn 0.0000 0.0000 -1.0000
vn 0.0000 0.0000 1.0000
# 6 vertex normals

vt 0.0000 0.0000 0.0000
vt 0.0357 0.0000 0.0000
vt 0.0357 1.0000 0.0000
vt 0.0000 1.0000 0.0000
vt 0.0714 0.0000 0.0000
vt 0.0714 1.0000 0.0000
vt 0.2857 0.0000 0.0000
vt 0.2857 1.0000 0.0000
vt 0.5357 0.0000 0.0000
vt 0.5357 1.0000 0.0000
vt 0.7857 0.0000 0.0000
vt 0.7857 1.0000 0.0000
vt 1.0000 0.0000 0.0000
vt 1.0000 1.0000 0.0000
vt 0.1429 0.1429 0.0000
vt 0.0000 0.1429 0.0000
vt 0.1429 0.0000 0.0000
# 17 texture coords

g Line004
s 1
f 1/1/1 2/2/1 3/3/1 4/4/1 
s 4
f 2/2/2 5/5/2 6/6/2 3/3/2 
s 2
f 5/5/1 7/7/1 8/8/1 6/6/1 
s 4
f 7/7/3 9/9/3 10/10/3 8/8/3 
s 2
f 9/9/4 11/11/4 12/12/4 10/10/4 
s 4
f 11/11/2 1/13/2 4/14/2 12/12/2 
s 16
f 9/14/5 2/15/5 1/16/5 11/4/5 
f 7/13/5 5/17/5 2/15/5 9/14/5 
f 10/14/6 12/4/6 4/16/6 3/15/6 
f 8/13/6 10/14/6 3/15/6 6/17/6 
# 10 polygons

