# 3ds Max Wavefront OBJ Exporter v0.97b - (c)2007 guruware
# File Created: 29.09.2019 23:05:03

#
# object Line001
#

v  -15.7481 -3.3189 55.1181
v  -3.1496 -3.3189 55.1181
v  -3.1496 -3.3189 70.8661
v  -15.7481 -3.3189 70.8661
v  -3.1496 -15.9174 55.1181
v  -3.1496 -15.9174 70.8661
v  11.8110 -15.9174 55.1181
v  11.8110 -15.9174 70.8661
v  11.8110 11.6417 55.1181
v  11.8110 11.6417 70.8661
v  -15.7481 11.6417 55.1181
v  -15.7481 11.6417 70.8661
v  -3.1496 -15.6839 55.3150
v  -3.1496 -3.2823 55.3150
v  -3.1496 -3.2823 70.6693
v  -3.1496 -15.6839 70.6693
v  -15.5513 -3.2823 55.3150
v  -15.5513 -3.2823 70.6693
v  -15.5513 -4.0697 55.3150
v  -15.5513 -4.0697 70.6693
v  -3.9370 -4.0697 55.3150
v  -3.9370 -4.0697 70.6693
v  -3.9370 -15.6839 55.3150
v  -3.9370 -15.6839 70.6693
# 24 vertices

vn -0.0000 -1.0000 0.0000
vn -1.0000 0.0000 0.0000
vn 0.0000 -1.0000 0.0000
vn 1.0000 0.0000 0.0000
vn -0.0000 1.0000 0.0000
vn 0.0000 0.0000 -1.0000
vn 0.0000 0.0000 1.0000
vn 0.0000 1.0000 0.0000
vn -0.0000 -0.0000 -1.0000
# 9 vertex normals

vt 0.0005 0.0005 0.4572
vt 0.4572 0.0005 0.4572
vt 0.4572 0.9995 0.4572
vt 0.0005 0.9995 0.4572
vt 0.5428 0.0005 0.4572
vt 0.9995 0.0005 0.4572
vt 0.9995 0.9995 0.4572
vt 0.5428 0.9995 0.4572
vt 0.4572 0.0005 0.0005
vt 0.9995 0.0005 0.0005
vt 0.9995 0.9995 0.0005
vt 0.4572 0.9995 0.0005
vt 0.0005 0.0005 0.9995
vt 0.9995 0.0005 0.9995
vt 0.9995 0.9995 0.9995
vt 0.0005 0.9995 0.9995
vt 0.0005 0.0005 0.0005
vt 0.5428 0.0005 0.0005
vt 0.5428 0.9995 0.0005
vt 0.0005 0.9995 0.0005
vt 0.5428 0.4572 0.0005
vt 0.9995 0.4572 0.0005
vt 0.4572 0.4572 0.9995
vt 0.4572 0.0005 0.9995
vt 0.0005 0.4572 0.9995
vt 0.0090 0.0130 0.4572
vt 0.4585 0.0130 0.4572
vt 0.4585 0.9870 0.4572
vt 0.0090 0.9870 0.4572
vt 0.5428 0.0130 0.4585
vt 0.9924 0.0130 0.4585
vt 0.9924 0.9870 0.4585
vt 0.5428 0.9870 0.4585
vt 0.5415 0.0130 0.0076
vt 0.5700 0.0130 0.0076
vt 0.5700 0.9870 0.0076
vt 0.5415 0.9870 0.0076
vt 0.0076 0.0130 0.4300
vt 0.4286 0.0130 0.4300
vt 0.4286 0.9870 0.4300
vt 0.0076 0.9870 0.4300
vt 0.5700 0.0130 0.4286
vt 0.9910 0.0130 0.4286
vt 0.9910 0.9870 0.4286
vt 0.5700 0.9870 0.4286
vt 0.4286 0.0130 0.0090
vt 0.4572 0.0130 0.0090
vt 0.4572 0.9870 0.0090
vt 0.4286 0.9870 0.0090
vt 0.5714 0.4300 0.0130
vt 0.5428 0.4585 0.0130
vt 0.5428 0.0090 0.0130
vt 0.5714 0.0090 0.0130
vt 0.9924 0.4300 0.0130
vt 0.9924 0.4585 0.0130
vt 0.4286 0.4300 0.9870
vt 0.4286 0.0090 0.9870
vt 0.4572 0.0090 0.9870
vt 0.4572 0.4585 0.9870
vt 0.0076 0.4585 0.9870
vt 0.0076 0.4300 0.9870
# 61 texture coords

g Line001
s 1
f 1/1/1 2/2/1 3/3/1 4/4/1 
s 4
f 2/5/2 5/6/2 6/7/2 3/8/2 
s 2
f 5/9/3 7/10/3 8/11/3 6/12/3 
s 4
f 7/13/4 9/14/4 10/15/4 8/16/4 
s 2
f 9/13/5 11/14/5 12/15/5 10/16/5 
s 4
f 11/17/2 1/18/2 4/19/2 12/20/2 
s 16
f 7/17/6 2/21/6 11/11/6 9/20/6 
f 2/21/6 7/17/6 5/18/6 
f 2/21/6 1/22/6 11/11/6 
f 8/14/7 10/15/7 12/16/7 3/23/7 
f 3/23/7 6/24/7 8/14/7 
f 3/23/7 12/16/7 4/25/7 
s 1
f 13/26/4 14/27/4 15/28/4 16/29/4 
s 4
f 14/30/8 17/31/8 18/32/8 15/33/8 
s 2
f 17/34/2 19/35/2 20/36/2 18/37/2 
s 4
f 19/38/3 21/39/3 22/40/3 20/41/3 
s 2
f 21/42/2 23/43/2 24/44/2 22/45/2 
s 4
f 23/46/3 13/47/3 16/48/3 24/49/3 
s 16
f 21/50/9 14/51/9 13/52/9 23/53/6 
f 21/50/9 19/54/6 17/55/9 14/51/9 
f 22/56/7 24/57/7 16/58/7 15/59/7 
f 22/56/7 15/59/7 18/60/7 20/61/7 
# 18 polygons - 4 triangles

