# 3ds Max Wavefront OBJ Exporter v0.97b - (c)2007 guruware
# File Created: 20.10.2019 22:57:21

mtllib lodowka.mtl

#
# object Box036
#

v  -29.5003 -30.0002 81.5000
v  -29.5003 -30.0002 10.5001
v  29.4998 -30.0002 10.5001
v  29.4998 -30.0002 81.5000
v  -29.5003 -28.0002 10.5001
v  29.4998 -28.0002 10.5001
v  29.4998 -28.0002 81.5000
v  -29.5003 -28.0002 81.5000
v  -30.0002 29.9999 10.0000
v  -30.0002 -23.0002 10.0000
v  29.9999 -23.0002 10.0000
v  29.9999 29.9999 10.0000
v  29.9999 -23.0002 0.0000
v  -30.0002 -23.0002 0.0000
v  -30.0002 29.9999 0.0000
v  29.9999 29.9999 0.0000
v  -29.5001 -28.0002 179.5000
v  -29.5001 -30.0002 179.5000
v  29.5001 -30.0002 179.5000
v  29.5001 -28.0002 179.5000
v  -29.5003 -30.0002 179.4998
v  -29.5003 -30.0002 82.5002
v  29.4998 -30.0002 82.5002
v  29.4998 -30.0002 179.4998
v  29.4998 -28.0002 82.5002
v  29.4998 -28.0002 179.4998
v  -29.5003 -28.0002 179.4998
v  -29.5003 -28.0002 82.5002
v  30.0000 29.9999 10.0000
v  30.0000 -28.0002 10.0000
v  -30.0002 -28.0002 10.0000
v  30.0000 -28.0002 180.5000
v  30.0000 29.9999 180.5000
v  -30.0002 29.9999 180.5000
v  -30.0002 -28.0002 180.5000
# 35 vertices

vn 0.0000 -1.0000 0.0000
vn 0.0000 0.0000 -1.0000
vn 1.0000 0.0000 0.0000
vn 0.0000 0.0000 1.0000
vn -1.0000 0.0000 0.0000
vn 0.0000 1.0000 0.0000
# 6 vertex normals

vt 0.0088 0.3971 0.0005
vt 0.0088 -0.4382 0.0005
vt 0.9912 -0.4382 0.0005
vt 0.9912 0.3971 0.0005
vt 0.9912 0.0005 -0.4382
vt 0.9912 0.0338 -0.4382
vt 0.0088 0.0338 -0.4382
vt 0.0088 0.0005 -0.4382
vt 0.0005 -0.4382 0.9912
vt 0.0338 -0.4382 0.9912
vt 0.0338 0.3971 0.9912
vt 0.0005 0.3971 0.9912
vt 0.9912 0.0005 0.3971
vt 0.9912 0.0338 0.3971
vt 0.0088 0.0338 0.3971
vt 0.0088 0.0005 0.3971
vt 0.9995 0.3971 0.0088
vt 0.9662 0.3971 0.0088
vt 0.9662 -0.4382 0.0088
vt 0.9995 -0.4382 0.0088
vt 0.0005 0.9995 -0.4441
vt 0.0005 0.1170 -0.4441
vt 0.9995 0.1170 -0.4441
vt 0.9995 0.9995 -0.4441
vt 0.0005 0.1170 -0.5618
vt 0.9995 0.1170 -0.5618
vt 0.9995 0.9995 -0.5618
vt 0.0005 0.9995 -0.5618
vt 0.9995 -0.4441 0.1170
vt 0.0005 -0.4441 0.1170
vt 0.0005 -0.5618 0.1170
vt 0.9995 -0.5618 0.1170
vt 0.9995 -0.4441 0.9995
vt 0.1170 -0.4441 0.9995
vt 0.1170 -0.5618 0.9995
vt 0.9995 -0.5618 0.9995
vt 0.0005 -0.4441 0.9995
vt 0.0005 -0.5618 0.9995
vt 0.8830 -0.4441 0.0005
vt 0.0005 -0.4441 0.0005
vt 0.0005 -0.5618 0.0005
vt 0.8830 -0.5618 0.0005
vt 0.0088 0.0338 1.5500
vt 0.0088 0.0005 1.5500
vt 0.9912 0.0005 1.5500
vt 0.9912 0.0338 1.5500
vt 0.0088 1.5500 0.0005
vt 0.0088 0.4088 0.0005
vt 0.9912 0.4088 0.0005
vt 0.9912 1.5500 0.0005
vt 0.0005 0.4088 0.9912
vt 0.0338 0.4088 0.9912
vt 0.0338 1.5500 0.9912
vt 0.0005 1.5500 0.9912
vt 0.9995 1.5500 0.0088
vt 0.9662 1.5500 0.0088
vt 0.9662 0.4088 0.0088
vt 0.9995 0.4088 0.0088
vt 0.0088 0.9995 -0.4441
vt 0.0088 0.0338 -0.4441
vt 0.9995 0.0338 -0.4441
vt 0.9912 0.0338 1.5618
vt 0.9912 0.9995 1.5618
vt 0.0005 0.9995 1.5618
vt 0.0005 0.0338 1.5618
vt 0.9912 -0.4441 0.0338
vt 0.9912 1.5618 0.0338
vt 0.0005 1.5618 0.0338
vt 0.0005 -0.4441 0.0338
vt 0.9995 -0.4441 0.9912
vt 0.9995 1.5618 0.9912
vt 0.0338 1.5618 0.9912
vt 0.0338 -0.4441 0.9912
vt 0.9995 1.5618 0.9995
vt 0.0088 1.5618 0.9995
vt 0.0088 -0.4441 0.9995
vt 0.9662 -0.4441 0.0005
vt 0.9662 1.5618 0.0005
vt 0.0005 1.5618 0.0005
# 79 texture coords

g Box036
usemtl default
s 8
f 1/1/1 2/2/1 3/3/1 4/4/1 
s off
f 2/5/2 5/6/2 6/7/2 3/8/2 
f 3/9/3 6/10/3 7/11/3 4/12/3 
f 4/13/4 7/14/4 8/15/4 1/16/4 
f 1/17/5 8/18/5 5/19/5 2/20/5 
s 2
f 9/21/4 10/22/4 11/23/4 12/24/4 
s 4
f 13/25/2 14/26/2 15/27/2 16/28/2 
s 8
f 11/29/1 10/30/1 14/31/1 13/32/1 
s 16
f 12/33/3 11/34/3 13/35/3 16/36/3 
s 32
f 9/33/6 12/37/6 16/38/6 15/36/6 
s 64
f 10/39/5 9/40/5 15/41/5 14/42/5 
s off
f 17/43/4 18/44/4 19/45/4 20/46/4 
s 8
f 21/47/1 22/48/1 23/49/1 24/50/1 
s off
f 23/51/3 25/52/3 26/53/3 24/54/3 
f 24/45/4 26/46/4 27/43/4 21/44/4 
f 21/55/5 27/56/5 28/57/5 22/58/5 
s 2
f 9/24/2 29/59/2 30/60/2 31/61/2 
s 4
f 32/62/4 33/63/4 34/64/4 35/65/4 
s 8
f 30/66/1 32/67/1 35/68/1 31/69/1 
s 16
f 29/70/3 33/71/3 32/72/3 30/73/3 
s 32
f 9/33/6 34/74/6 33/75/6 29/76/6 
s 64
f 31/77/5 35/78/5 34/79/5 9/40/5 
# 22 polygons

