# 3ds Max Wavefront OBJ Exporter v0.97b - (c)2007 guruware
# File Created: 22.09.2019 21:13:57

#
# object Box036
#

v  11.8110 11.8110 3.9370
v  11.8110 -11.0237 3.9370
v  -11.8111 -11.0237 3.9370
v  -11.8111 11.8110 3.9370
v  11.6141 -11.8111 32.0866
v  -11.6143 -11.8111 32.0866
v  -11.6143 -11.8111 4.1339
v  11.6141 -11.8111 4.1339
v  11.8110 11.8110 32.2835
v  11.8110 -11.0237 32.2835
v  -11.8111 11.8110 32.2835
v  -11.8111 -11.0237 32.2835
v  11.6141 -11.0237 4.1339
v  -11.6143 -11.0237 4.1339
v  11.6141 -11.0237 32.0866
v  -11.6143 -11.0237 32.0866
v  -11.8111 -9.0552 3.9370
v  11.8110 -9.0552 3.9370
v  11.8110 11.8110 0.0000
v  11.8110 -9.0552 0.0000
v  -11.8111 -9.0552 0.0000
v  -11.8111 11.8110 0.0000
v  -11.8111 -11.0237 70.8661
v  11.8110 -11.0237 70.8661
v  11.8110 11.8110 70.8661
v  -11.8111 11.8110 70.8661
v  11.6142 -11.8111 70.6693
v  -11.6142 -11.8111 70.6693
v  -11.6142 -11.8111 32.2835
v  11.6142 -11.8111 32.2835
v  -11.6142 -11.0237 70.6693
v  11.6142 -11.0237 70.6693
v  -11.6142 -11.0237 32.2835
v  11.6142 -11.0237 32.2835
# 34 vertices

vn 0.0000 0.0000 -1.0000
vn 0.0000 -1.0000 0.0000
vn 1.0000 0.0000 0.0000
vn 0.0000 1.0000 0.0000
vn -1.0000 0.0000 0.0000
vn 0.0000 0.0000 1.0000
# 6 vertex normals

vt 0.0000 1.0000 0.0000
vt 0.0000 0.0000 0.0000
vt 1.0000 0.0000 0.0000
vt 1.0000 1.0000 0.0000
# 4 texture coords

g Box036
s 2
f 1/1/1 2/2/1 3/3/1 4/4/1 
s 8
f 5/4/2 6/1/2 7/2/2 8/3/2 
s 16
f 9/4/3 10/1/3 2/2/3 1/3/3 
s 32
f 11/4/4 9/1/4 1/2/4 4/3/4 
s 64
f 12/4/5 11/1/5 4/2/5 3/3/5 
s off
f 13/3/2 14/2/2 3/3/2 2/2/2 
f 15/4/2 13/3/2 2/2/2 10/1/2 
f 16/1/2 15/4/2 10/3/2 12/2/2 
f 14/2/2 16/1/2 12/4/2 3/3/2 
f 8/3/1 7/2/1 14/2/1 13/3/1 
f 5/4/3 8/3/3 13/3/3 15/4/3 
f 6/1/6 5/4/6 15/4/6 16/1/6 
f 7/2/5 6/1/5 16/1/5 14/2/5 
s 2
f 1/1/6 4/4/6 17/3/6 18/2/6 
s 4
f 19/4/1 20/3/1 21/2/1 22/1/1 
s 8
f 20/4/2 18/3/2 17/2/2 21/1/2 
s 16
f 19/4/3 1/3/3 18/2/3 20/1/3 
s 32
f 22/4/4 4/3/4 1/2/4 19/1/4 
s 64
f 21/4/5 17/3/5 4/2/5 22/1/5 
s 4
f 23/2/6 24/3/6 25/4/6 26/1/6 
s off
f 26/1/4 25/4/4 9/4/4 11/1/4 
f 23/2/5 26/1/5 11/1/5 12/2/5 
f 27/3/2 28/2/2 29/2/2 30/3/2 
f 25/4/3 24/3/3 10/3/3 9/4/3 
f 24/3/2 23/2/2 31/2/2 32/3/2 
f 23/2/2 12/2/2 33/2/2 31/2/2 
f 12/2/4 10/3/4 34/3/4 33/2/4 
f 10/3/2 24/3/2 32/3/2 34/3/2 
f 32/3/6 31/2/6 28/2/6 27/3/6 
f 31/2/5 33/2/5 29/2/5 28/2/5 
f 33/2/1 34/3/1 30/3/1 29/2/1 
f 34/3/3 32/3/3 27/3/3 30/3/3 
# 32 polygons

