# 3ds Max Wavefront OBJ Exporter v0.97b - (c)2007 guruware
# File Created: 20.10.2019 22:59:56

mtllib szafka_gora.mtl

#
# object SzafkaGora
#

v  -29.9999 -18.0000 140.0000
v  -29.9999 20.0000 140.0000
v  30.0002 20.0000 140.0000
v  30.0002 -18.0000 140.0000
v  -29.9999 -18.0000 179.9999
v  30.0002 -18.0000 179.9999
v  30.0002 20.0000 179.9999
v  -29.9999 20.0000 179.9999
v  -29.5001 -20.0000 140.5001
v  29.5001 -20.0000 140.5001
v  29.5001 -20.0000 179.5000
v  -29.5001 -20.0000 179.5000
v  29.5001 -18.0000 140.5001
v  -29.5001 -18.0000 140.5001
v  29.5001 -18.0000 179.5000
v  -29.5001 -18.0000 179.5000
# 16 vertices

vn 0.0000 0.0000 -1.0000
vn 0.0000 0.0000 1.0000
vn 0.0000 -1.0000 0.0000
vn 1.0000 0.0000 0.0000
vn 0.0000 1.0000 0.0000
vn -1.0000 0.0000 0.0000
# 6 vertex normals

vt 1.0000 0.0000 0.0000
vt 1.0000 1.0000 0.0000
vt 0.0000 1.0000 0.0000
vt 0.0000 0.0000 0.0000
# 4 texture coords

g SzafkaGora
usemtl default
s 2
f 1/1/1 2/2/1 3/3/1 4/4/1 
s 4
f 5/4/2 6/1/2 7/2/2 8/3/2 
s 8
f 9/4/3 10/1/3 11/2/3 12/3/3 
s 16
f 4/4/4 3/1/4 7/2/4 6/3/4 
s 32
f 3/4/5 2/1/5 8/2/5 7/3/5 
s 64
f 2/4/6 1/1/6 5/2/6 8/3/6 
s off
f 1/1/3 4/4/3 13/1/3 14/4/3 
f 4/4/3 6/3/3 15/2/3 13/1/3 
f 6/1/3 5/4/3 16/3/3 15/2/3 
f 5/2/3 1/1/3 14/4/3 16/3/3 
f 14/4/1 13/1/1 10/1/1 9/4/1 
f 13/1/4 15/2/4 11/2/4 10/1/4 
f 15/2/2 16/3/2 12/3/2 11/2/2 
f 16/3/6 14/4/6 9/4/6 12/3/6 
# 14 polygons

