# 3ds Max Wavefront OBJ Exporter v0.97b - (c)2007 guruware
# File Created: 20.10.2019 23:01:51

mtllib szuflady_2+1+1.mtl

#
# object Box030
#

v  30.0002 -28.0002 10.0000
v  -29.9999 -28.0002 10.0000
v  -29.9999 -23.0002 10.0000
v  30.0002 -23.0002 10.0000
v  -29.9999 29.9999 82.0001
v  -29.9999 -28.0002 82.0001
v  30.0002 -28.0002 82.0001
v  30.0002 29.9999 82.0001
v  -29.5001 -30.0002 45.5000
v  -29.5001 -30.0002 10.5001
v  29.5001 -30.0002 10.5001
v  29.5001 -30.0002 45.5000
v  30.0002 29.9999 10.0000
v  -29.9999 29.9999 10.0000
v  -29.5001 -28.0002 10.5001
v  29.5001 -28.0002 10.5001
v  29.5001 -28.0002 45.5000
v  -29.5001 -28.0002 45.5000
v  30.0002 -23.0002 0.0000
v  -29.9999 -23.0002 0.0000
v  -29.9999 29.9999 0.0000
v  30.0002 29.9999 0.0000
v  -29.5001 -30.0002 81.5000
v  -29.5001 -30.0002 73.5000
v  29.5001 -30.0002 73.5000
v  29.5001 -30.0002 81.5000
v  -29.5001 -28.0002 73.5000
v  29.5001 -28.0002 73.5000
v  29.5001 -28.0002 81.5000
v  -29.5001 -28.0002 81.5000
v  -29.5001 -30.0002 63.5000
v  -29.5001 -30.0002 46.5000
v  29.5001 -30.0002 46.5000
v  29.5001 -30.0002 63.5000
v  -29.5001 -28.0002 46.5000
v  29.5001 -28.0002 46.5000
v  29.5001 -28.0002 63.5000
v  -29.5001 -28.0002 63.5000
v  -29.5001 -30.0002 72.5000
v  -29.5001 -30.0002 64.5000
v  29.5001 -30.0002 64.5000
v  29.5001 -30.0002 72.5000
v  -29.5001 -28.0002 64.5000
v  29.5001 -28.0002 64.5000
v  29.5001 -28.0002 72.5000
v  -29.5001 -28.0002 72.5000
# 46 vertices

vn 0.0000 0.0000 -1.0000
vn 0.0000 0.0000 1.0000
vn 0.0000 -1.0000 0.0000
vn 1.0000 0.0000 0.0000
vn 0.0000 1.0000 0.0000
vn -1.0000 0.0000 0.0000
# 6 vertex normals

vt 0.0000 0.0000 0.0000
vt 1.0000 0.0000 0.0000
vt 1.0000 1.0000 0.0000
vt 0.0000 1.0000 0.0000
# 4 texture coords

g Box030
usemtl default
s 2
f 1/1/1 2/2/1 3/3/1 4/4/1 
s 4
f 5/4/2 6/1/2 7/2/2 8/3/2 
s 8
f 9/4/3 10/1/3 11/2/3 12/3/3 
s 16
f 7/4/4 1/1/4 13/2/4 8/3/4 
s 32
f 8/4/5 13/1/5 14/2/5 5/3/5 
s 64
f 5/4/6 14/1/6 2/2/6 6/3/6 
s off
f 10/1/1 15/1/1 16/2/1 11/2/1 
f 11/2/4 16/2/4 17/3/4 12/3/4 
f 12/3/2 17/3/2 18/4/2 9/4/2 
f 9/4/6 18/4/6 15/1/6 10/1/6 
s 2
f 14/3/2 3/2/2 4/1/2 13/4/2 
s 4
f 19/2/1 20/1/1 21/4/1 22/3/1 
s 8
f 4/2/3 3/1/3 20/4/3 19/3/3 
s 16
f 13/2/4 4/1/4 19/4/4 22/3/4 
s 32
f 14/2/5 13/1/5 22/4/5 21/3/5 
s 64
f 3/2/6 14/1/6 21/4/6 20/3/6 
s 8
f 23/4/3 24/1/3 25/2/3 26/3/3 
s off
f 24/1/1 27/1/1 28/2/1 25/2/1 
f 25/2/4 28/2/4 29/3/4 26/3/4 
f 26/3/2 29/3/2 30/4/2 23/4/2 
f 23/4/6 30/4/6 27/1/6 24/1/6 
f 1/1/3 7/2/3 6/1/3 2/2/3 
s 8
f 31/4/3 32/1/3 33/2/3 34/3/3 
s off
f 32/1/1 35/1/1 36/2/1 33/2/1 
f 33/2/4 36/2/4 37/3/4 34/3/4 
f 34/3/2 37/3/2 38/4/2 31/4/2 
f 31/4/6 38/4/6 35/1/6 32/1/6 
s 8
f 39/4/3 40/1/3 41/2/3 42/3/3 
s off
f 40/1/1 43/1/1 44/2/1 41/2/1 
f 41/2/4 44/2/4 45/3/4 42/3/4 
f 42/3/2 45/3/2 46/4/2 39/4/2 
f 39/4/6 46/4/6 43/1/6 40/1/6 
# 32 polygons

