# 3ds Max Wavefront OBJ Exporter v0.97b - (c)2007 guruware
# File Created: 20.01.2019 22:39:56

#
# object Box029
#

v  11.8111 -9.0552 3.9370
v  11.8111 -11.0237 3.9370
v  -11.8110 -11.0237 3.9370
v  -11.8110 -9.0552 3.9370
v  11.8111 11.8110 32.2835
v  -11.8110 11.8110 32.2835
v  -11.8110 -11.0237 32.2835
v  11.8111 -11.0237 32.2835
v  11.6142 -11.8111 17.9134
v  -11.6142 -11.8111 17.9134
v  -11.6142 -11.8111 4.1339
v  11.6142 -11.8111 4.1339
v  11.8111 11.8110 3.9370
v  -11.8110 11.8110 3.9370
v  -11.6142 -11.0237 4.1339
v  11.6142 -11.0237 4.1339
v  11.6142 -11.0237 17.9134
v  -11.6142 -11.0237 17.9134
v  11.8111 11.8110 0.0000
v  11.8111 -9.0552 0.0000
v  -11.8110 -9.0552 0.0000
v  -11.8110 11.8110 0.0000
v  11.6142 -11.8111 32.0866
v  -11.6142 -11.8111 32.0866
v  -11.6142 -11.8111 25.3937
v  11.6142 -11.8111 25.3937
v  -11.6142 -11.0237 25.3937
v  11.6142 -11.0237 25.3937
v  11.6142 -11.0237 32.0866
v  -11.6142 -11.0237 32.0866
v  11.6142 -11.8111 25.0000
v  -11.6142 -11.8111 25.0000
v  -11.6142 -11.8111 18.3071
v  11.6142 -11.8111 18.3071
v  -11.6142 -11.0237 18.3071
v  11.6142 -11.0237 18.3071
v  11.6142 -11.0237 25.0000
v  -11.6142 -11.0237 25.0000
# 38 vertices

vn 0.0000 0.0000 -1.0000
vn 0.0000 0.0000 1.0000
vn 0.0000 -1.0000 0.0000
vn 1.0000 0.0000 0.0000
vn 0.0000 1.0000 0.0000
vn -1.0000 0.0000 0.0000
# 6 vertex normals

vt 0.0000 1.0000 0.0000
vt 0.0000 0.0000 0.0000
vt 1.0000 0.0000 0.0000
vt 1.0000 1.0000 0.0000
# 4 texture coords

g Box029
s 2
f 1/1/1 2/2/1 3/3/1 4/4/1 
s 4
f 5/4/2 6/1/2 7/2/2 8/3/2 
s 8
f 9/4/3 10/1/3 11/2/3 12/3/3 
s 16
f 5/4/4 8/1/4 2/2/4 13/3/4 
s 32
f 6/4/5 5/1/5 13/2/5 14/3/5 
s 64
f 7/4/6 6/1/6 14/2/6 3/3/6 
s off
f 12/3/1 11/2/1 15/2/1 16/3/1 
f 9/4/4 12/3/4 16/3/4 17/4/4 
f 10/1/2 9/4/2 17/4/2 18/1/2 
f 11/2/6 10/1/6 18/1/6 15/2/6 
s 2
f 13/1/2 14/4/2 4/3/2 1/2/2 
s 4
f 19/4/1 20/3/1 21/2/1 22/1/1 
s 8
f 20/4/3 1/3/3 4/2/3 21/1/3 
s 16
f 19/4/4 13/3/4 1/2/4 20/1/4 
s 32
f 22/4/5 14/3/5 13/2/5 19/1/5 
s 64
f 21/4/6 4/3/6 14/2/6 22/1/6 
s 8
f 23/4/3 24/1/3 25/2/3 26/3/3 
s off
f 26/3/1 25/2/1 27/2/1 28/3/1 
f 23/4/4 26/3/4 28/3/4 29/4/4 
f 24/1/2 23/4/2 29/4/2 30/1/2 
f 25/2/6 24/1/6 30/1/6 27/2/6 
f 3/3/3 2/2/3 8/3/3 7/2/3 
s 8
f 31/4/3 32/1/3 33/2/3 34/3/3 
s off
f 34/3/1 33/2/1 35/2/1 36/3/1 
f 31/4/4 34/3/4 36/3/4 37/4/4 
f 32/1/2 31/4/2 37/4/2 38/1/2 
f 33/2/6 32/1/6 38/1/6 35/2/6 
# 27 polygons

