# 3ds Max Wavefront OBJ Exporter v0.97b - (c)2007 guruware
# File Created: 24.09.2019 19:23:38

#
# object Box045
#

v  -9.4488 -9.8425 33.4646
v  9.4488 -9.8425 33.4646
v  9.4488 -9.8425 33.8583
v  -9.4488 -9.8425 33.8583
v  11.0236 -8.2677 33.4646
v  11.0236 6.2992 33.4646
v  11.0236 6.2992 33.8583
v  11.0236 -8.2677 33.8583
v  9.4488 9.8425 33.4646
v  -9.4488 9.8425 33.4646
v  -9.4488 9.8425 33.8583
v  9.4488 9.8425 33.8583
v  -11.0236 6.2992 33.4646
v  -11.0236 -8.2677 33.4646
v  -11.0236 -8.2677 33.8583
v  -11.0236 6.2992 33.8583
v  -9.4488 -8.2677 33.4646
v  9.4488 -8.2677 33.4646
v  11.0236 -9.8425 33.8583
v  11.0236 -9.8425 33.4646
v  9.4488 -8.2677 33.8583
v  -9.4488 -8.2677 33.8583
v  -11.0236 -9.8425 33.4646
v  -11.0236 -9.8425 33.8583
v  9.4488 6.2992 33.4646
v  -9.4488 6.2992 33.4646
v  -11.0236 9.8425 33.8583
v  -11.0236 9.8425 33.4646
v  -9.4488 6.2992 33.8583
v  9.4488 6.2992 33.8583
v  11.0236 9.8425 33.4646
v  11.0236 9.8425 33.8583
v  -9.4488 -8.2677 33.6614
v  -9.4488 6.2992 33.6614
v  -9.4488 -8.2677 26.9685
v  9.4488 -8.2677 26.9685
v  9.4488 6.2992 26.9685
v  -9.4488 6.2992 26.9685
v  -9.8425 -8.6614 26.5748
v  -9.8425 6.6929 26.5748
v  9.8425 6.6929 26.5748
v  9.8425 -8.6614 26.5748
v  -9.8425 -8.6614 33.4646
v  9.8425 -8.6614 33.4646
v  9.8425 6.6929 33.4646
v  -9.8425 6.6929 33.4646
v  -11.8110 -11.8110 32.2835
v  11.8110 -11.8110 32.2835
v  11.8110 -11.8110 33.4646
v  -11.8110 -11.8110 33.4646
v  11.8110 11.8110 32.2835
v  11.8110 11.8110 33.4646
v  -11.8110 11.8110 32.2835
v  -11.8110 11.8110 33.4646
v  -9.8425 6.6929 32.2835
v  -9.8425 -8.6614 32.2835
v  9.8425 6.6929 32.2835
v  9.8425 -8.6614 32.2835
# 58 vertices

vn 0.0000 -1.0000 0.0000
vn 1.0000 0.0000 0.0000
vn 0.0000 1.0000 0.0000
vn -1.0000 0.0000 0.0000
vn 0.0000 0.0000 -1.0000
vn -0.0000 0.0000 1.0000
vn 0.0000 0.0000 1.0000
vn -0.0000 -1.0000 0.0000
vn 0.0000 -0.0000 -1.0000
vn 0.0000 -1.0000 -0.0000
vn -0.0000 1.0000 -0.0000
vn -0.0000 1.0000 0.0000
# 12 vertex normals

vt 0.0000 0.0000 0.0000
vt 1.0000 0.0000 0.0000
vt 1.0000 1.0000 0.0000
vt 0.0000 1.0000 0.0000
# 4 texture coords

g Box045
s 8
f 1/1/1 2/2/1 3/3/1 4/4/1 
s 16
f 5/1/2 6/2/2 7/3/2 8/4/2 
s 32
f 9/1/3 10/2/3 11/3/3 12/4/3 
s 64
f 13/1/4 14/2/4 15/3/4 16/4/4 
s off
f 17/1/5 18/2/5 2/2/5 1/1/5 
f 5/1/2 8/4/2 19/3/2 20/2/2 
f 21/2/6 22/1/6 4/4/6 3/3/6 
f 15/3/4 14/2/4 23/1/4 24/4/4 
f 25/1/5 26/2/5 10/2/5 9/1/5 
f 13/1/4 16/4/4 27/3/4 28/2/4 
f 29/4/6 30/3/6 12/4/6 11/3/6 
f 7/3/2 6/2/2 31/1/2 32/4/2 
f 18/1/5 25/2/5 6/2/5 5/1/5 
f 25/1/5 9/1/5 31/1/5 6/2/5 
f 9/1/3 12/4/3 32/4/3 31/1/3 
f 12/4/7 30/3/7 7/3/7 32/4/7 
f 30/3/7 21/2/7 8/4/7 7/3/7 
f 21/2/7 3/3/7 19/3/7 8/4/7 
f 3/3/1 2/2/1 20/2/1 19/3/1 
f 2/2/5 18/2/5 5/1/5 20/2/5 
f 26/1/5 17/2/5 17/2/5 26/1/5 
f 17/1/5 1/1/5 1/1/5 17/2/5 
f 1/1/1 4/4/1 4/4/1 1/1/1 
f 4/4/7 22/1/7 22/3/7 4/4/7 
f 33/1/7 34/4/7 34/4/7 33/3/7 
f 29/4/7 11/3/7 11/3/7 29/4/7 
f 11/3/3 10/2/3 10/2/3 11/3/3 
f 10/2/5 26/2/5 26/1/5 10/2/5 
f 26/1/5 17/2/5 14/2/5 13/1/5 
f 17/2/5 1/1/5 23/1/5 14/2/5 
f 1/1/1 4/4/1 24/4/1 23/1/1 
f 4/4/7 22/3/7 15/3/7 24/4/7 
f 22/3/7 29/4/7 16/4/7 15/3/7 
f 29/4/7 11/3/7 27/3/7 16/4/7 
f 11/3/3 10/2/3 28/2/3 27/3/3 
f 10/2/5 26/1/5 13/1/5 28/2/5 
f 22/1/3 21/2/3 18/2/3 17/1/3 
f 21/2/4 30/3/4 25/3/4 18/2/4 
f 30/3/8 29/4/8 26/4/8 25/3/8 
f 29/4/1 29/4/1 34/4/1 34/4/1 
f 29/4/2 22/3/2 33/3/2 34/4/2 
f 22/3/3 22/1/3 33/1/3 33/3/3 
f 26/4/2 34/4/2 33/1/2 17/1/2 
s 2
f 35/2/6 36/1/6 37/4/6 38/3/6 
s 4
f 39/1/9 40/4/9 41/3/9 42/2/9 
s 8
f 43/1/10 39/4/1 42/3/10 44/2/10 
s 16
f 44/1/2 42/4/2 41/3/2 45/2/2 
s 32
f 45/1/11 41/4/11 40/3/11 46/2/11 
s 64
f 46/1/4 40/4/4 39/3/4 43/2/4 
s off
f 43/1/7 44/2/7 18/1/7 17/2/7 
f 44/1/7 45/2/7 25/4/7 18/1/7 
f 45/1/7 46/2/7 26/3/7 25/4/7 
f 46/1/7 43/2/7 17/2/7 26/3/7 
f 17/2/12 18/1/12 36/1/12 35/2/12 
f 18/1/4 25/4/4 37/4/4 36/1/4 
f 25/4/1 26/3/1 38/3/1 37/4/1 
f 26/3/2 17/2/2 35/2/2 38/3/2 
s 8
f 47/1/1 48/2/1 49/3/1 50/4/1 
s 16
f 48/1/2 51/2/2 52/3/2 49/4/2 
s 32
f 51/1/3 53/2/3 54/3/3 52/4/3 
s 64
f 53/1/4 47/2/4 50/3/4 54/4/4 
s off
f 47/2/5 53/1/5 55/3/5 56/2/5 
f 53/2/5 51/1/5 57/4/5 55/3/5 
f 51/2/5 48/1/5 58/1/5 57/4/5 
f 48/2/5 47/1/5 56/2/5 58/1/5 
f 50/4/7 49/3/7 44/2/7 43/1/7 
f 49/4/7 52/3/7 45/3/7 44/2/7 
f 52/4/7 54/3/7 46/4/7 45/3/7 
f 54/4/7 50/3/7 43/1/7 46/4/7 
f 43/1/3 44/2/3 58/2/3 56/1/3 
f 44/2/4 45/3/4 57/3/4 58/2/4 
f 45/3/1 46/4/1 55/4/1 57/3/1 
f 46/4/2 43/1/2 56/1/2 55/4/2 
# 73 polygons

