# 3ds Max Wavefront OBJ Exporter v0.97b - (c)2007 guruware
# File Created: 20.10.2019 23:05:44

mtllib zlew+blat_dwukomorowy.mtl

#
# object Box042
#

v  25.2499 -25.0000 85.0001
v  25.2499 -25.0000 86.0001
v  10.7500 -25.0000 86.0001
v  10.7500 -25.0000 85.0001
v  28.7500 16.0000 85.0001
v  28.7500 16.0000 86.0001
v  28.7500 -21.0000 86.0001
v  28.7500 -21.0000 85.0001
v  10.7500 25.0000 85.0001
v  10.7500 25.0000 86.0001
v  25.2499 25.0000 86.0001
v  25.2499 25.0000 85.0001
v  -28.7500 -21.0000 85.0001
v  -28.7500 -21.0000 86.0001
v  -28.7500 16.0000 86.0001
v  -28.7500 16.0000 85.0001
v  25.2499 -21.0000 85.0001
v  10.7500 -21.0000 85.0001
v  28.7500 -25.0000 86.0001
v  28.7500 -25.0000 85.0001
v  10.7500 -21.0000 86.0001
v  25.2499 -21.0000 86.0001
v  -28.7500 -25.0000 85.0001
v  -28.7500 -25.0000 86.0001
v  10.7500 16.0000 85.0001
v  25.2499 16.0000 85.0001
v  -28.7500 25.0000 86.0001
v  -28.7500 25.0000 85.0001
v  25.2499 16.0000 86.0001
v  10.7500 16.0000 86.0001
v  28.7500 25.0000 85.0001
v  28.7500 25.0000 86.0001
v  6.7501 -21.0000 85.0001
v  6.7501 16.0000 85.0001
v  -25.2499 -25.0000 85.0001
v  -25.2499 -21.0000 85.0001
v  -25.2499 -25.0000 86.0001
v  6.7501 -21.0000 86.0001
v  -25.2499 -21.0000 86.0001
v  6.7501 16.0000 85.5000
v  6.7501 -21.0000 85.5000
v  10.7500 -21.0000 85.5000
v  10.7500 16.0000 85.5000
v  -25.2499 25.0000 86.0001
v  6.7501 16.0000 86.0001
v  -25.2499 16.0000 86.0001
v  -25.2499 25.0000 85.0001
v  -25.2499 16.0000 85.0001
v  25.2499 -21.0000 73.0001
v  25.2499 16.0000 73.0001
v  10.7500 16.0000 73.0001
v  10.7500 -21.0000 73.0001
v  9.7500 17.0000 72.0001
v  26.2499 17.0000 72.0001
v  26.2499 -22.0000 72.0001
v  9.7500 -22.0000 72.0001
v  26.2499 -22.0000 85.0001
v  9.7500 -22.0000 85.0001
v  26.2499 17.0000 85.0001
v  9.7500 17.0000 85.0001
v  6.7501 -21.0000 67.5000
v  6.7501 16.0000 67.5000
v  -25.2499 16.0000 67.5000
v  -25.2499 -21.0000 67.5000
v  -26.2499 17.0000 66.5000
v  7.7500 17.0000 66.5000
v  7.7500 -22.0000 66.5000
v  -26.2499 -22.0000 66.5000
v  7.7500 -22.0000 85.0001
v  -26.2499 -22.0000 85.0001
v  7.7500 17.0000 85.0001
v  -26.2499 17.0000 85.0001
v  29.9999 -29.9999 82.0001
v  29.9999 -29.9999 85.0001
v  -29.9999 -29.9999 85.0001
v  -29.9999 -29.9999 82.0001
v  29.9999 29.9999 82.0001
v  29.9999 29.9999 85.0001
v  -29.9999 29.9999 82.0001
v  -29.9999 29.9999 85.0001
v  -26.2499 17.0000 82.0001
v  -26.2499 -22.0000 82.0001
v  26.2499 17.0000 82.0001
v  26.2499 -22.0000 82.0001
# 84 vertices

vn 0.0000 -1.0000 0.0000
vn 1.0000 0.0000 0.0000
vn 0.0000 1.0000 0.0000
vn -1.0000 0.0000 0.0000
vn 0.0000 0.0000 -1.0000
vn 0.0000 0.0000 1.0000
# 6 vertex normals

vt 1.0000 0.0000 0.0000
vt 1.0000 1.0000 0.0000
vt 0.0000 1.0000 0.0000
vt 0.0000 0.0000 0.0000
vt 0.5000 0.0000 0.0000
vt 0.5000 0.5000 0.0000
# 6 texture coords

g Box042
usemtl 02___Default
s 8
f 1/1/1 2/2/1 3/3/1 4/4/1 
s 16
f 5/1/2 6/2/2 7/3/2 8/4/2 
s 32
f 9/1/3 10/2/3 11/3/3 12/4/3 
s 64
f 13/1/4 14/2/4 15/3/4 16/4/4 
s off
f 17/1/5 1/1/5 4/4/5 18/4/5 
f 7/3/2 19/2/2 20/1/2 8/4/2 
f 21/4/6 3/3/6 2/2/6 22/1/6 
f 13/1/4 23/4/4 24/3/4 14/2/4 
f 25/1/5 9/1/5 12/4/5 26/4/5 
f 15/3/4 27/2/4 28/1/4 16/4/4 
f 29/2/6 11/3/6 10/2/6 30/3/6 
f 5/1/2 31/4/2 32/3/2 6/2/2 
f 26/1/5 5/1/5 8/4/5 17/4/5 
f 12/4/5 31/4/5 5/1/5 26/4/5 
f 11/3/3 32/3/3 31/4/3 12/4/3 
f 29/2/6 6/2/6 32/3/6 11/3/6 
f 22/1/6 7/3/6 6/2/6 29/2/6 
f 2/2/6 19/2/6 7/3/6 22/1/6 
f 1/1/1 20/1/1 19/2/1 2/2/1 
f 17/1/5 8/4/5 20/1/5 1/1/5 
f 33/1/5 34/4/5 25/4/5 18/1/5 
f 4/4/5 35/4/5 33/5/5 18/4/5 
f 35/4/5 36/1/5 33/5/5 
f 3/3/1 37/3/1 35/4/1 4/4/1 
f 38/6/6 39/2/6 3/3/6 21/4/6 
f 3/3/6 39/2/6 37/3/6 
f 40/3/6 41/6/6 42/4/6 43/3/6 
f 10/2/6 44/2/6 45/3/6 30/3/6 
f 44/2/6 46/3/6 45/3/6 
f 9/1/3 47/1/3 44/2/3 10/2/3 
f 34/5/5 48/4/5 9/1/5 25/1/5 
f 9/1/5 48/4/5 47/1/5 
f 36/1/5 13/1/5 16/4/5 48/4/5 
f 35/4/5 23/4/5 13/1/5 36/1/5 
f 37/3/1 24/3/1 23/4/1 35/4/1 
f 39/2/6 14/2/6 24/3/6 37/3/6 
f 46/3/6 15/3/6 14/2/6 39/2/6 
f 44/2/6 27/2/6 15/3/6 46/3/6 
f 47/1/3 28/1/3 27/2/3 44/2/3 
f 48/4/5 16/4/5 28/1/5 47/1/5 
f 22/1/3 17/1/3 18/4/3 21/4/3 
f 29/2/4 26/2/4 17/1/4 22/1/4 
f 30/3/1 25/3/1 26/2/1 29/2/1 
f 40/3/1 43/3/1 30/3/1 45/3/1 
f 39/2/2 36/2/2 48/3/2 46/3/2 
f 43/3/2 42/4/2 18/4/2 25/3/2 
s 2
f 49/4/6 50/3/6 51/2/6 52/1/6 
s 4
f 53/3/5 54/2/5 55/1/5 56/4/5 
s 8
f 56/3/1 55/2/1 57/1/1 58/4/1 
s 16
f 55/3/2 54/2/2 59/1/2 57/4/2 
s 32
f 54/3/3 53/2/3 60/1/3 59/4/3 
s 64
f 53/3/4 56/2/4 58/1/4 60/4/4 
s off
f 57/1/6 17/4/6 18/1/6 58/4/6 
f 59/1/6 26/3/6 17/4/6 57/4/6 
f 60/1/6 25/2/6 26/3/6 59/4/6 
f 58/1/6 18/1/6 25/2/6 60/4/6 
f 17/4/3 49/4/3 52/1/3 18/1/3 
f 26/3/4 50/3/4 49/4/4 17/4/4 
f 25/2/1 51/2/1 50/3/1 26/3/1 
f 18/1/2 52/1/2 51/2/2 25/2/2 
f 36/2/2 48/3/2 48/3/2 
f 48/3/2 36/2/2 36/2/2 
f 40/3/4 34/3/4 33/6/4 41/6/4 
f 42/4/3 41/6/3 38/6/3 21/4/3 
f 38/6/3 33/1/3 36/2/3 39/2/3 
f 46/3/1 48/3/1 34/5/1 45/3/1 
s 2
f 61/4/6 62/3/6 63/2/6 64/1/6 
s 4
f 65/3/5 66/2/5 67/1/5 68/4/5 
s 8
f 68/3/1 67/2/1 69/1/1 70/4/1 
s 16
f 67/3/2 66/2/2 71/1/2 69/4/2 
s 32
f 66/3/3 65/2/3 72/1/3 71/4/3 
s 64
f 65/3/4 68/2/4 70/1/4 72/4/4 
s off
f 69/1/6 33/4/6 36/1/6 70/4/6 
f 71/1/6 34/3/6 33/4/6 69/4/6 
f 72/1/6 48/2/6 34/3/6 71/4/6 
f 70/1/6 36/1/6 48/2/6 72/4/6 
f 33/4/3 61/4/3 64/1/3 36/1/3 
f 34/3/4 62/3/4 61/4/4 33/4/4 
f 48/2/1 63/2/1 62/3/1 34/3/1 
f 36/1/2 64/1/2 63/2/2 48/2/2 
usemtl default
s 8
f 73/1/1 74/2/1 75/3/1 76/4/1 
s 16
f 77/1/2 78/2/2 74/3/2 73/4/2 
s 32
f 79/1/3 80/2/3 78/3/3 77/4/3 
s 64
f 76/1/4 75/2/4 80/3/4 79/4/4 
s off
f 76/1/5 79/4/5 81/2/5 82/1/5 
f 77/4/5 83/3/5 81/2/5 79/1/5 
f 73/4/5 84/4/5 83/3/5 77/1/5 
f 76/4/5 82/1/5 84/4/5 73/1/5 
f 74/2/6 57/1/6 70/4/6 75/3/6 
f 74/3/6 78/2/6 59/2/6 57/1/6 
f 80/2/6 72/3/6 59/2/6 78/3/6 
f 75/2/6 70/4/6 72/3/6 80/3/6 
usemtl 02___Default
f 57/1/3 84/1/3 82/4/3 70/4/3 
f 59/2/4 83/2/4 84/1/4 57/1/4 
f 72/3/1 81/3/1 83/2/1 59/2/1 
f 70/4/2 82/4/2 81/3/2 72/3/2 
# 90 polygons - 6 triangles

