# 3ds Max Wavefront OBJ Exporter v0.97b - (c)2007 guruware
# File Created: 20.10.2019 23:07:42

mtllib zlew+blat_ociekacz.mtl

#
# object Box040
#

v  19.5001 -25.0000 85.0001
v  19.5001 -25.0000 86.0001
v  -19.5001 -25.0000 86.0001
v  -19.5001 -25.0000 85.0001
v  23.5001 16.0000 85.0001
v  23.5001 16.0000 86.0001
v  23.5001 -21.0000 86.0001
v  23.5001 -21.0000 85.0001
v  -19.5001 25.0000 85.0001
v  -19.5001 25.0000 86.0001
v  19.5001 25.0000 86.0001
v  19.5001 25.0000 85.0001
v  -54.9999 -21.0000 85.0001
v  -54.9999 -21.0000 86.0001
v  -54.9999 16.0000 86.0001
v  -54.9999 16.0000 85.0001
v  19.5001 -21.0000 85.0001
v  -19.5001 -21.0000 85.0001
v  23.5001 -25.0000 86.0001
v  23.5001 -25.0000 85.0001
v  -19.5001 -21.0000 86.0001
v  19.5001 -21.0000 86.0001
v  -54.9999 -25.0000 85.0001
v  -54.9999 -25.0000 86.0001
v  -19.5001 16.0000 85.0001
v  19.5001 16.0000 85.0001
v  -54.9999 25.0000 86.0001
v  -54.9999 25.0000 85.0001
v  19.5001 16.0000 86.0001
v  -19.5001 16.0000 86.0001
v  23.5001 25.0000 85.0001
v  23.5001 25.0000 86.0001
v  -50.9999 -21.0000 85.0001
v  -50.9999 16.0000 85.0001
v  -50.9999 -25.0000 85.0001
v  -50.9999 -25.0000 86.0001
v  -50.9999 -21.0000 86.0001
v  -19.5001 16.0000 85.5000
v  -50.9999 16.0000 85.5000
v  -50.9999 -21.0000 85.5000
v  -19.5001 -21.0000 85.5000
v  -50.9999 25.0000 86.0001
v  -50.9999 16.0000 86.0001
v  -50.9999 25.0000 85.0001
v  19.5001 -21.0000 68.5000
v  19.5001 16.0000 68.5000
v  -19.5001 16.0000 68.5000
v  -19.5001 -21.0000 68.5000
v  -20.5001 17.0000 67.5000
v  20.5001 17.0000 67.5000
v  20.5001 -22.0000 67.5000
v  -20.5001 -22.0000 67.5000
v  20.5001 -22.0000 85.0001
v  -20.5001 -22.0000 85.0001
v  20.5001 17.0000 85.0001
v  -20.5001 17.0000 85.0001
v  29.9999 -29.9999 82.0001
v  29.9999 -29.9999 85.0001
v  -29.9999 -29.9999 85.0001
v  -29.9999 -29.9999 82.0001
v  29.9999 29.9999 82.0001
v  29.9999 29.9999 85.0001
v  -29.9999 29.9999 82.0001
v  -29.9999 29.9999 85.0001
v  -20.0000 16.5001 82.0001
v  -20.0000 -21.5001 82.0001
v  20.0000 16.5001 82.0001
v  20.0000 -21.5001 82.0001
v  20.0000 -21.5001 85.0001
v  -20.0000 -21.5001 85.0001
v  20.0000 16.5001 85.0001
v  -20.0000 16.5001 85.0001
# 72 vertices

vn 0.0000 -1.0000 0.0000
vn 1.0000 0.0000 0.0000
vn 0.0000 1.0000 0.0000
vn -1.0000 0.0000 0.0000
vn 0.0000 0.0000 -1.0000
vn 0.0000 0.0000 1.0000
# 6 vertex normals

vt 1.0000 0.0000 0.0000
vt 1.0000 1.0000 0.0000
vt 0.0000 1.0000 0.0000
vt 0.0000 0.0000 0.0000
# 4 texture coords

g Box040
usemtl 02___Default
s 8
f 1/1/1 2/2/1 3/3/1 4/4/1 
s 16
f 5/1/2 6/2/2 7/3/2 8/4/2 
s 32
f 9/1/3 10/2/3 11/3/3 12/4/3 
s 64
f 13/1/4 14/2/4 15/3/4 16/4/4 
s off
f 17/1/5 1/1/5 4/4/5 18/4/5 
f 7/3/2 19/2/2 20/1/2 8/4/2 
f 21/4/6 3/3/6 2/2/6 22/1/6 
f 13/1/4 23/4/4 24/3/4 14/2/4 
f 25/1/5 9/1/5 12/4/5 26/4/5 
f 15/3/4 27/2/4 28/1/4 16/4/4 
f 29/2/6 11/3/6 10/2/6 30/3/6 
f 5/1/2 31/4/2 32/3/2 6/2/2 
f 26/1/5 5/1/5 8/4/5 17/4/5 
f 12/4/5 31/4/5 5/1/5 26/4/5 
f 11/3/3 32/3/3 31/4/3 12/4/3 
f 29/2/6 6/2/6 32/3/6 11/3/6 
f 22/1/6 7/3/6 6/2/6 29/2/6 
f 2/2/6 19/2/6 7/3/6 22/1/6 
f 1/1/1 20/1/1 19/2/1 2/2/1 
f 17/1/5 8/4/5 20/1/5 1/1/5 
f 18/1/5 33/1/5 34/4/5 25/4/5 
f 4/4/5 35/4/5 33/1/5 18/4/5 
f 3/3/1 36/3/1 35/4/1 4/4/1 
f 21/4/6 37/2/6 36/3/6 3/3/6 
f 38/3/6 39/3/6 40/2/6 41/4/6 
f 10/2/6 42/2/6 43/3/6 30/3/6 
f 9/1/3 44/1/3 42/2/3 10/2/3 
f 25/1/5 34/4/5 44/1/5 9/1/5 
f 33/1/5 13/1/5 16/4/5 34/4/5 
f 35/4/5 23/4/5 13/1/5 33/1/5 
f 36/3/1 24/3/1 23/4/1 35/4/1 
f 37/2/6 14/2/6 24/3/6 36/3/6 
f 43/3/6 15/3/6 14/2/6 37/2/6 
f 42/2/6 27/2/6 15/3/6 43/3/6 
f 44/1/3 28/1/3 27/2/3 42/2/3 
f 34/4/5 16/4/5 28/1/5 44/1/5 
f 22/1/3 17/1/3 18/4/3 21/4/3 
f 29/2/4 26/2/4 17/1/4 22/1/4 
f 30/3/1 25/3/1 26/2/1 29/2/1 
f 43/3/1 39/3/1 38/3/1 30/3/1 
f 37/2/2 40/2/2 39/3/2 43/3/2 
f 21/4/3 41/4/3 40/2/3 37/2/3 
f 38/3/2 41/4/2 18/4/2 25/3/2 
s 2
f 45/4/6 46/3/6 47/2/6 48/1/6 
s 4
f 49/3/5 50/2/5 51/1/5 52/4/5 
s 8
f 52/3/1 51/2/1 53/1/1 54/4/1 
s 16
f 51/3/2 50/2/2 55/1/2 53/4/2 
s 32
f 50/3/3 49/2/3 56/1/3 55/4/3 
s 64
f 49/3/4 52/2/4 54/1/4 56/4/4 
s off
f 53/1/6 17/4/6 18/1/6 54/4/6 
f 55/1/6 26/3/6 17/4/6 53/4/6 
f 56/1/6 25/2/6 26/3/6 55/4/6 
f 54/1/6 18/1/6 25/2/6 56/4/6 
f 17/4/3 45/4/3 48/1/3 18/1/3 
f 26/3/4 46/3/4 45/4/4 17/4/4 
f 25/2/1 47/2/1 46/3/1 26/3/1 
f 18/1/2 48/1/2 47/2/2 25/2/2 
usemtl default
s 8
f 57/1/1 58/2/1 59/3/1 60/4/1 
s 16
f 61/1/2 62/2/2 58/3/2 57/4/2 
s 32
f 63/1/3 64/2/3 62/3/3 61/4/3 
s 64
f 60/1/4 59/2/4 64/3/4 63/4/4 
s off
f 60/1/5 63/4/5 65/2/5 66/1/5 
f 61/4/5 67/3/5 65/2/5 63/1/5 
f 57/4/5 68/4/5 67/3/5 61/1/5 
f 60/4/5 66/1/5 68/4/5 57/1/5 
f 58/2/6 69/1/6 70/4/6 59/3/6 
f 58/3/6 62/2/6 71/2/6 69/1/6 
f 64/2/6 72/3/6 71/2/6 62/3/6 
f 59/2/6 70/4/6 72/3/6 64/3/6 
usemtl 02___Default
f 69/1/3 68/1/3 66/4/3 70/4/3 
f 71/2/4 67/2/4 68/1/4 69/1/4 
f 72/3/1 65/3/1 67/2/1 71/2/1 
f 70/4/2 66/4/2 65/3/2 72/3/2 
# 73 polygons

