# 3ds Max Wavefront OBJ Exporter v0.97b - (c)2007 guruware
# File Created: 24.09.2019 19:24:33

#
# object Box040
#

v  -7.6772 -9.8425 33.4646
v  7.6772 -9.8425 33.4646
v  7.6772 -9.8425 33.8583
v  -7.6772 -9.8425 33.8583
v  9.2520 -8.2677 33.4646
v  9.2520 6.2992 33.4646
v  9.2520 6.2992 33.8583
v  9.2520 -8.2677 33.8583
v  7.6772 9.8425 33.4646
v  -7.6772 9.8425 33.4646
v  -7.6772 9.8425 33.8583
v  7.6772 9.8425 33.8583
v  -21.6535 6.2992 33.4646
v  -21.6535 -8.2677 33.4646
v  -21.6535 -8.2677 33.8583
v  -21.6535 6.2992 33.8583
v  -7.6772 -8.2677 33.4646
v  7.6772 -8.2677 33.4646
v  9.2520 -9.8425 33.8583
v  9.2520 -9.8425 33.4646
v  7.6772 -8.2677 33.8583
v  -7.6772 -8.2677 33.8583
v  -21.6535 -9.8425 33.4646
v  -21.6535 -9.8425 33.8583
v  7.6772 6.2992 33.4646
v  -7.6772 6.2992 33.4646
v  -21.6535 9.8425 33.8583
v  -21.6535 9.8425 33.4646
v  -7.6772 6.2992 33.8583
v  7.6772 6.2992 33.8583
v  9.2520 9.8425 33.4646
v  9.2520 9.8425 33.8583
v  -20.0787 -8.2677 33.4646
v  -20.0787 6.2992 33.4646
v  -20.0787 -9.8425 33.4646
v  -20.0787 -9.8425 33.8583
v  -20.0787 -8.2677 33.8583
v  -7.6772 -8.2677 33.6614
v  -7.6772 6.2992 33.6614
v  -20.0787 6.2992 33.6614
v  -20.0787 -8.2677 33.6614
v  -20.0787 9.8425 33.8583
v  -20.0787 6.2992 33.8583
v  -20.0787 9.8425 33.4646
v  -7.6772 -8.2677 26.9685
v  7.6772 -8.2677 26.9685
v  7.6772 6.2992 26.9685
v  -7.6772 6.2992 26.9685
v  -8.0709 -8.6614 26.5748
v  -8.0709 6.6929 26.5748
v  8.0709 6.6929 26.5748
v  8.0709 -8.6614 26.5748
v  -8.0709 -8.6614 33.4646
v  8.0709 -8.6614 33.4646
v  8.0709 6.6929 33.4646
v  -8.0709 6.6929 33.4646
v  -11.8110 -11.8110 32.2835
v  11.8110 -11.8110 32.2835
v  11.8110 -11.8110 33.4646
v  -11.8110 -11.8110 33.4646
v  11.8110 11.8110 32.2835
v  11.8110 11.8110 33.4646
v  -11.8110 11.8110 32.2835
v  -11.8110 11.8110 33.4646
v  -7.8740 6.4961 32.2835
v  -7.8740 -8.4646 32.2835
v  7.8740 6.4961 32.2835
v  7.8740 -8.4646 32.2835
v  7.8740 -8.4646 33.4646
v  -7.8740 -8.4646 33.4646
v  7.8740 6.4961 33.4646
v  -7.8740 6.4961 33.4646
# 72 vertices

vn 0.0000 -1.0000 0.0000
vn 1.0000 0.0000 0.0000
vn 0.0000 1.0000 0.0000
vn -1.0000 0.0000 0.0000
vn 0.0000 0.0000 -1.0000
vn 0.0000 0.0000 1.0000
vn -0.0000 0.0000 1.0000
vn 0.0000 -0.0000 -1.0000
vn 0.0000 -1.0000 -0.0000
vn -0.0000 1.0000 -0.0000
vn -0.0000 1.0000 0.0000
# 11 vertex normals

vt 0.0000 0.0000 0.0000
vt 1.0000 0.0000 0.0000
vt 1.0000 1.0000 0.0000
vt 0.0000 1.0000 0.0000
# 4 texture coords

g Box040
s 8
f 1/1/1 2/2/1 3/3/1 4/4/1 
s 16
f 5/1/2 6/2/2 7/3/2 8/4/2 
s 32
f 9/1/3 10/2/3 11/3/3 12/4/3 
s 64
f 13/1/4 14/2/4 15/3/4 16/4/4 
s off
f 17/1/5 18/2/5 2/2/5 1/1/5 
f 5/1/2 8/4/2 19/3/2 20/2/2 
f 21/2/6 22/1/6 4/4/6 3/3/6 
f 15/3/4 14/2/4 23/1/4 24/4/4 
f 25/1/5 26/2/5 10/2/5 9/1/5 
f 13/1/4 16/4/4 27/3/4 28/2/4 
f 29/4/6 30/3/6 12/4/6 11/3/6 
f 7/3/2 6/2/2 31/1/2 32/4/2 
f 18/1/5 25/2/5 6/2/5 5/1/5 
f 25/1/5 9/1/5 31/1/5 6/2/5 
f 9/1/3 12/4/3 32/4/3 31/1/3 
f 12/4/6 30/3/6 7/3/6 32/4/6 
f 30/3/6 21/2/6 8/4/6 7/3/6 
f 21/2/6 3/3/6 19/3/6 8/4/6 
f 3/3/1 2/2/1 20/2/1 19/3/1 
f 2/2/5 18/2/5 5/1/5 20/2/5 
f 26/1/5 17/2/5 33/2/5 34/1/5 
f 17/1/5 1/1/5 35/1/5 33/2/5 
f 1/1/1 4/4/1 36/4/1 35/1/1 
f 4/4/6 22/1/6 37/3/6 36/4/6 
f 38/1/6 39/4/6 40/4/6 41/3/6 
f 29/4/6 11/3/6 42/3/6 43/4/6 
f 11/3/3 10/2/3 44/2/3 42/3/3 
f 10/2/5 26/2/5 34/1/5 44/2/5 
f 34/1/5 33/2/5 14/2/5 13/1/5 
f 33/2/5 35/1/5 23/1/5 14/2/5 
f 35/1/1 36/4/1 24/4/1 23/1/1 
f 36/4/6 37/3/6 15/3/6 24/4/6 
f 37/3/6 43/4/6 16/4/6 15/3/6 
f 43/4/6 42/3/6 27/3/6 16/4/6 
f 42/3/3 44/2/3 28/2/3 27/3/3 
f 44/2/5 34/1/5 13/1/5 28/2/5 
f 22/1/3 21/2/3 18/2/3 17/1/3 
f 21/2/4 30/3/4 25/3/4 18/2/4 
f 30/3/1 29/4/1 26/4/1 25/3/1 
f 29/4/1 43/4/1 40/4/1 39/4/1 
f 43/4/2 37/3/2 41/3/2 40/4/2 
f 37/3/3 22/1/3 38/1/3 41/3/3 
f 26/4/2 39/4/2 38/1/2 17/1/2 
s 2
f 45/2/7 46/1/7 47/4/7 48/3/7 
s 4
f 49/1/8 50/4/8 51/3/8 52/2/8 
s 8
f 53/1/9 49/4/1 52/3/9 54/2/9 
s 16
f 54/1/2 52/4/2 51/3/2 55/2/2 
s 32
f 55/1/10 51/4/10 50/3/10 56/2/10 
s 64
f 56/1/4 50/4/4 49/3/4 53/2/4 
s off
f 53/1/6 54/2/6 18/1/6 17/2/6 
f 54/1/6 55/2/6 25/4/6 18/1/6 
f 55/1/6 56/2/6 26/3/6 25/4/6 
f 56/1/6 53/2/6 17/2/6 26/3/6 
f 17/2/11 18/1/11 46/1/11 45/2/11 
f 18/1/4 25/4/4 47/4/4 46/1/4 
f 25/4/1 26/3/1 48/3/1 47/4/1 
f 26/3/2 17/2/2 45/2/2 48/3/2 
s 8
f 57/1/1 58/2/1 59/3/1 60/4/1 
s 16
f 58/1/2 61/2/2 62/3/2 59/4/2 
s 32
f 61/1/3 63/2/3 64/3/3 62/4/3 
s 64
f 63/1/4 57/2/4 60/3/4 64/4/4 
s off
f 57/2/5 63/1/5 65/3/5 66/2/5 
f 63/2/5 61/1/5 67/4/5 65/3/5 
f 61/2/5 58/1/5 68/1/5 67/4/5 
f 58/2/5 57/1/5 66/2/5 68/1/5 
f 60/4/6 59/3/6 69/2/6 70/1/6 
f 59/4/6 62/3/6 71/3/6 69/2/6 
f 62/4/6 64/3/6 72/4/6 71/3/6 
f 64/4/6 60/3/6 70/1/6 72/4/6 
f 70/1/3 69/2/3 68/2/3 66/1/3 
f 69/2/4 71/3/4 67/3/4 68/2/4 
f 71/3/1 72/4/1 65/4/1 67/3/1 
f 72/4/2 70/1/2 66/1/2 65/4/2 
# 73 polygons

