# 3ds Max Wavefront OBJ Exporter v0.97b - (c)2007 guruware
# File Created: 10.05.2018 12:00:53

mtllib modul_02.mtl

#
# object Box032
#

v  0.0000 0.0000 32.2835
v  23.6221 0.0000 32.2835
v  23.6221 -23.6221 32.2835
v  0.0000 -23.6221 32.2835
v  23.6221 -23.6221 33.4646
v  23.6221 0.0000 33.4646
v  0.0000 0.0000 33.4646
v  0.0000 -23.6221 33.4646
# 8 vertices

vn 0.0000 0.0000 -1.0000
vn 0.0000 0.0000 1.0000
vn 0.0000 -1.0000 0.0000
vn 1.0000 0.0000 0.0000
vn 0.0000 1.0000 0.0000
vn -1.0000 0.0000 0.0000
# 6 vertex normals

vt 1.6975 0.8000 0.0005
vt 1.0975 0.8000 0.0005
vt 1.0975 0.2000 0.0005
vt 1.6975 0.2000 0.0005
vt -0.0975 0.2000 0.9995
vt -0.0975 0.8000 0.9995
vt -0.6975 0.8000 0.9995
vt -0.6975 0.2000 0.9995
vt -0.0975 0.0005 0.2000
vt -0.0975 0.9995 0.2000
vt -0.6975 0.9995 0.2000
vt -0.6975 0.0005 0.2000
vt 0.8000 0.0005 -0.0975
vt 0.8000 0.9995 -0.0975
vt 0.2000 0.9995 -0.0975
vt 0.2000 0.0005 -0.0975
vt 1.6975 0.0005 0.8000
vt 1.6975 0.9995 0.8000
vt 1.0975 0.9995 0.8000
vt 1.0975 0.0005 0.8000
vt 0.8000 0.0005 -0.6975
vt 0.8000 0.9995 -0.6975
vt 0.2000 0.9995 -0.6975
vt 0.2000 0.0005 -0.6975
# 24 texture coords

g Box032
usemtl wire_000000000
s 2
f 1/1/1 2/2/1 3/3/1 4/4/1 
s 4
f 5/5/2 6/6/2 7/7/2 8/8/2 
s 8
f 3/9/3 5/10/3 8/11/3 4/12/3 
s 16
f 2/13/4 6/14/4 5/15/4 3/16/4 
s 32
f 1/17/5 7/18/5 6/19/5 2/20/5 
s 64
f 4/21/6 8/22/6 7/23/6 1/24/6 
# 6 polygons

