# 3ds Max Wavefront OBJ Exporter v0.97b - (c)2007 guruware
# File Created: 18.06.2018 23:06:07

#
# object Box032
#

v  11.8111 11.8110 32.2835
v  11.8111 -11.8111 32.2835
v  -11.8110 -11.8111 32.2835
v  -11.8110 11.8110 32.2835
v  11.8111 11.8110 33.4646
v  -11.8110 11.8110 33.4646
v  -11.8110 -11.8111 33.4646
v  11.8111 -11.8111 33.4646
# 8 vertices

vn 0.0000 0.0000 -1.0000
vn 0.0000 0.0000 1.0000
vn 0.0000 -1.0000 0.0000
vn 1.0000 0.0000 0.0000
vn 0.0000 1.0000 0.0000
vn -1.0000 0.0000 0.0000
# 6 vertex normals

vt 1.0975 0.8000 0.0005
vt 1.0975 0.2000 0.0005
vt 1.6975 0.2000 0.0005
vt 1.6975 0.8000 0.0005
vt -0.0975 0.8000 0.9995
vt -0.6975 0.8000 0.9995
vt -0.6975 0.2000 0.9995
vt -0.0975 0.2000 0.9995
vt -0.0975 0.9995 0.2000
vt -0.6975 0.9995 0.2000
vt -0.6975 0.0005 0.2000
vt -0.0975 0.0005 0.2000
vt 0.8000 0.9995 -0.0975
vt 0.2000 0.9995 -0.0975
vt 0.2000 0.0005 -0.0975
vt 0.8000 0.0005 -0.0975
vt 1.6975 0.9995 0.8000
vt 1.0975 0.9995 0.8000
vt 1.0975 0.0005 0.8000
vt 1.6975 0.0005 0.8000
vt 0.8000 0.9995 -0.6975
vt 0.2000 0.9995 -0.6975
vt 0.2000 0.0005 -0.6975
vt 0.8000 0.0005 -0.6975
# 24 texture coords

g Box032
s 2
f 1/1/1 2/2/1 3/3/1 4/4/1 
s 4
f 5/5/2 6/6/2 7/7/2 8/8/2 
s 8
f 8/9/3 7/10/3 3/11/3 2/12/3 
s 16
f 5/13/4 8/14/4 2/15/4 1/16/4 
s 32
f 6/17/5 5/18/5 1/19/5 4/20/5 
s 64
f 7/21/6 6/22/6 4/23/6 3/24/6 
# 6 polygons

