# 3ds Max Wavefront OBJ Exporter v0.97b - (c)2007 guruware
# File Created: 25.04.2018 00:28:32

mtllib modul_02.mtl

#
# object Box032
#

v  651.5431 135.1540 32.2835
v  651.5431 158.7761 32.2835
v  675.1652 158.7761 32.2835
v  675.1652 135.1540 32.2835
v  651.5431 135.1540 33.4646
v  675.1652 135.1540 33.4646
v  675.1652 158.7761 33.4646
v  651.5431 158.7761 33.4646
# 8 vertices

vn 0.0000 0.0000 -1.0000
vn 0.0000 0.0000 1.0000
vn 0.0000 -1.0000 0.0000
vn 1.0000 0.0000 0.0000
vn 0.0000 1.0000 0.0000
vn -1.0000 0.0000 0.0000
# 6 vertex normals

vt 1.6975 0.2000 0.0005
vt 1.6975 0.8000 0.0005
vt 1.0975 0.8000 0.0005
vt 1.0975 0.2000 0.0005
vt -0.6975 0.2000 0.9995
vt -0.0975 0.2000 0.9995
vt -0.0975 0.8000 0.9995
vt -0.6975 0.8000 0.9995
vt -0.6975 0.0005 0.2000
vt -0.0975 0.0005 0.2000
vt -0.0975 0.9995 0.2000
vt -0.6975 0.9995 0.2000
vt 0.2000 0.0005 -0.0975
vt 0.8000 0.0005 -0.0975
vt 0.8000 0.9995 -0.0975
vt 0.2000 0.9995 -0.0975
vt 1.0975 0.0005 0.8000
vt 1.6975 0.0005 0.8000
vt 1.6975 0.9995 0.8000
vt 1.0975 0.9995 0.8000
vt 0.2000 0.0005 -0.6975
vt 0.8000 0.0005 -0.6975
vt 0.8000 0.9995 -0.6975
vt 0.2000 0.9995 -0.6975
# 24 texture coords

g Box032
usemtl wire_000000000
s 2
f 1/1/1 2/2/1 3/3/1 4/4/1 
s 4
f 5/5/2 6/6/2 7/7/2 8/8/2 
s 8
f 1/9/3 4/10/3 6/11/3 5/12/3 
s 16
f 4/13/4 3/14/4 7/15/4 6/16/4 
s 32
f 3/17/5 2/18/5 8/19/5 7/20/5 
s 64
f 2/21/6 1/22/6 5/23/6 8/24/6 
# 6 polygons

