# 3ds Max Wavefront OBJ Exporter v0.97b - (c)2007 guruware
# File Created: 10.05.2018 12:01:08

mtllib modul_01.mtl

#
# object Box028
#

v  0.0000 0.0000 3.9370
v  23.6221 0.0000 3.9370
v  23.6221 -22.8347 3.9370
v  0.0000 -22.8347 3.9370
v  23.6221 -22.8347 32.2835
v  23.6221 0.0000 32.2835
v  0.0000 0.0000 32.2835
v  0.0000 -22.8347 32.2835
v  23.4252 -23.6221 4.1339
v  23.4252 -23.6221 32.0866
v  0.1968 -23.6221 32.0866
v  0.1968 -23.6221 4.1339
v  23.4252 -22.8347 4.1339
v  0.1968 -22.8347 4.1339
v  23.4252 -22.8347 32.0866
v  0.1968 -22.8347 32.0866
v  23.6221 -20.8662 3.9370
v  0.0000 -20.8662 3.9370
v  0.0000 0.0000 0.0000
v  23.6221 0.0000 0.0000
v  23.6221 -20.8662 0.0000
v  0.0000 -20.8662 0.0000
# 22 vertices

vn 0.0000 0.0000 -1.0000
vn 0.0000 0.0000 1.0000
vn 0.0000 -1.0000 0.0000
vn 1.0000 0.0000 0.0000
vn 0.0000 1.0000 0.0000
vn -1.0000 0.0000 0.0000
# 6 vertex normals

vt 1.0000 1.0000 0.0000
vt 0.0000 1.0000 0.0000
vt 0.0000 0.0000 0.0000
vt 1.0000 0.0000 0.0000
# 4 texture coords

g Box028
usemtl wire_139139139
s 2
f 1/1/1 2/2/1 3/3/1 4/4/1 
s 4
f 5/4/2 6/1/2 7/2/2 8/3/2 
s 8
f 9/4/3 10/1/3 11/2/3 12/3/3 
s 16
f 2/4/4 6/1/4 5/2/4 3/3/4 
s 32
f 1/4/5 7/1/5 6/2/5 2/3/5 
s 64
f 4/4/6 8/1/6 7/2/6 1/3/6 
s off
f 3/3/3 13/4/3 14/3/3 4/4/3 
f 5/2/3 15/1/3 13/4/3 3/3/3 
f 8/3/3 16/2/3 15/1/3 5/4/3 
f 4/4/3 14/3/3 16/2/3 8/1/3 
f 13/4/1 9/4/1 12/3/1 14/3/1 
f 15/1/4 10/1/4 9/4/4 13/4/4 
f 16/2/2 11/2/2 10/1/2 15/1/2 
f 14/3/6 12/3/6 11/2/6 16/2/6 
s 2
f 17/3/2 2/2/2 1/1/2 18/4/2 
s 4
f 19/2/1 20/1/1 21/4/1 22/3/1 
s 8
f 22/2/3 21/1/3 17/4/3 18/3/3 
s 16
f 21/2/4 20/1/4 2/4/4 17/3/4 
s 32
f 20/2/5 19/1/5 1/4/5 2/3/5 
s 64
f 19/2/6 22/1/6 18/4/6 1/3/6 
# 20 polygons

