# 3ds Max Wavefront OBJ Exporter v0.97b - (c)2007 guruware
# File Created: 25.04.2018 00:28:12

mtllib modul_01.mtl

#
# object Box028
#

v  651.5431 135.9414 3.9370
v  651.5431 158.7761 3.9370
v  675.1652 158.7761 3.9370
v  675.1652 135.9414 3.9370
v  651.5431 135.9414 32.2835
v  675.1652 135.9414 32.2835
v  675.1652 158.7761 32.2835
v  651.5431 158.7761 32.2835
v  651.7399 135.1540 4.1339
v  674.9683 135.1540 4.1339
v  674.9683 135.1540 32.0866
v  651.7399 135.1540 32.0866
v  674.9683 135.9414 4.1339
v  651.7399 135.9414 4.1339
v  674.9683 135.9414 32.0866
v  651.7399 135.9414 32.0866
v  651.5431 137.9099 3.9370
v  675.1652 137.9099 3.9370
v  651.5431 137.9099 0.0000
v  651.5431 158.7761 0.0000
v  675.1652 158.7761 0.0000
v  675.1652 137.9099 0.0000
# 22 vertices

vn 0.0000 0.0000 -1.0000
vn 0.0000 0.0000 1.0000
vn 0.0000 -1.0000 0.0000
vn 1.0000 0.0000 0.0000
vn 0.0000 1.0000 0.0000
vn -1.0000 0.0000 0.0000
# 6 vertex normals

vt 1.0000 0.0000 0.0000
vt 1.0000 1.0000 0.0000
vt 0.0000 1.0000 0.0000
vt 0.0000 0.0000 0.0000
# 4 texture coords

g Box028
usemtl wire_139139139
s 2
f 1/1/1 2/2/1 3/3/1 4/4/1 
s 4
f 5/4/2 6/1/2 7/2/2 8/3/2 
s 8
f 9/4/3 10/1/3 11/2/3 12/3/3 
s 16
f 4/4/4 3/1/4 7/2/4 6/3/4 
s 32
f 3/4/5 2/1/5 8/2/5 7/3/5 
s 64
f 2/4/6 1/1/6 5/2/6 8/3/6 
s off
f 1/1/3 4/4/3 13/1/3 14/4/3 
f 4/4/3 6/3/3 15/2/3 13/1/3 
f 6/1/3 5/4/3 16/3/3 15/2/3 
f 5/2/3 1/1/3 14/4/3 16/3/3 
f 14/4/1 13/1/1 10/1/1 9/4/1 
f 13/1/4 15/2/4 11/2/4 10/1/4 
f 15/2/2 16/3/2 12/3/2 11/2/2 
f 16/3/6 14/4/6 9/4/6 12/3/6 
s 2
f 17/1/2 18/4/2 3/3/2 2/2/2 
s 4
f 19/4/1 20/3/1 21/2/1 22/1/1 
s 8
f 17/4/3 19/3/3 22/2/3 18/1/3 
s 16
f 18/4/4 22/3/4 21/2/4 3/1/4 
s 32
f 3/4/5 21/3/5 20/2/5 2/1/5 
s 64
f 2/4/6 20/3/6 19/2/6 17/1/6 
# 20 polygons

