# 3ds Max Wavefront OBJ Exporter v0.97b - (c)2007 guruware
# File Created: 18.06.2018 23:04:22

#
# object Box033
#

v  11.8111 11.8110 55.1181
v  11.8111 -3.1496 55.1181
v  -11.8110 -3.1496 55.1181
v  -11.8110 11.8110 55.1181
v  11.8111 11.8110 70.8661
v  -11.8110 11.8110 70.8661
v  -11.8110 -3.1496 70.8661
v  11.8111 -3.1496 70.8661
v  11.6142 -3.9370 70.6693
v  -11.6142 -3.9370 70.6693
v  -11.6142 -3.9370 55.3150
v  11.6142 -3.9370 55.3150
v  11.6142 -3.1496 55.3150
v  -11.6142 -3.1496 55.3150
v  11.6142 -3.1496 70.6693
v  -11.6142 -3.1496 70.6693
# 16 vertices

vn 0.0000 0.0000 -1.0000
vn 0.0000 0.0000 1.0000
vn 0.0000 -1.0000 0.0000
vn 1.0000 0.0000 0.0000
vn 0.0000 1.0000 0.0000
vn -1.0000 0.0000 0.0000
# 6 vertex normals

vt 0.0000 1.0000 0.0000
vt 0.0000 0.0000 0.0000
vt 1.0000 0.0000 0.0000
vt 1.0000 1.0000 0.0000
# 4 texture coords

g Box033
s 2
f 1/1/1 2/2/1 3/3/1 4/4/1 
s 4
f 5/4/2 6/1/2 7/2/2 8/3/2 
s 8
f 9/4/3 10/1/3 11/2/3 12/3/3 
s 16
f 5/4/4 8/1/4 2/2/4 1/3/4 
s 32
f 6/4/5 5/1/5 1/2/5 4/3/5 
s 64
f 7/4/6 6/1/6 4/2/6 3/3/6 
s off
f 13/3/3 14/2/3 3/3/3 2/2/3 
f 15/4/3 13/3/3 2/2/3 8/1/3 
f 16/1/3 15/4/3 8/3/3 7/2/3 
f 14/2/3 16/1/3 7/4/3 3/3/3 
f 12/3/1 11/2/1 14/2/1 13/3/1 
f 9/4/4 12/3/4 13/3/4 15/4/4 
f 10/1/2 9/4/2 15/4/2 16/1/2 
f 11/2/6 10/1/6 16/1/6 14/2/6 
# 14 polygons

